<svg version="1.2" xmlns="http://www.w3.org/2000/svg" viewBox="0 0 498 338" width="498" height="338">
	<style>
		.s0 { fill: #d6d2d2 } 
		.s1 { fill: #231f20 } 
	</style>
	<g style="opacity: .71">
		<path class="s0" d="m327.37 129.07c-0.07 4.48 0.23 0.56 0-1.07-0.03 0.51-0.09 0.6 0 1.07zm-0.15 78.43c0.17 0.61 0.03 2.74 0.08 3.94-0.18-0.86-0.15-2.34-0.08-3.94zm-0.14-127.49c-0.1-1.66-0.15-4.68-0.07-6.09 0.16 1.93 0.13 3.9 0.07 6.09zm-0.08 135.72c0.21 0.71-0.03 2.24 0 3.22-0.22-0.75 0.1-1.89 0-3.22zm0.08-119.97c0.1 4.29 0.17 13.78 0 21.13-0.09-0.06-0.06-0.65-0.07-1.07v-1.08c-0.09-3.47 0.09-5.93-0.15-8.24 0.46-1.25-0.44-4.94-0.3-7.88 0.31 0.05 0.05 2.87 0.22 3.58 0.29-1.24 0.14-3.54 0.15-5.37 0.16 0.77 0.16-0.09 0.15-1.08zm-0.45 54.44c-0.12 1.37-0.15 3.99 0 4.66h-0.22c0.26 5.46 0.15 12.24 0.07 20.06 0.07-0.01 0.06-0.44 0.07-0.72 0.03 5.01-0.39 14.77-0.07 21.49-0.1-0.43-0.12-0.14-0.22 0 0.15 3.58 0.15 6.91 0.22 12.18-0.11-0.97-0.41 0.09-0.37-2.15 0.14 0.04 0.05 1.18 0.22 1.07 0.02-5.03-0.25-5.88-0.07-9.67-0.1 0.11-0.06 0.9-0.07 1.43-0.17-2.84 0-8.13-0.07-12.54-0.17 8.16-0.04 16.76-0.15 24-0.01 0.96-0.13 2.82 0.08 4.66-0.09 0.84-0.19-1.19-0.15-2.15-0.27 2.66 0.15 3.5 0.15 6.45-0.16 0.06-0.03-1.27-0.08-1.79-0.33 3.99-0.41 13.22-0.52 18.26-0.08-0.09-0.05-0.71-0.15-0.72-0.22 0.24 0.07 0.77 0 1.43-0.36 0.77-0.37 3.25-0.37 5.73 0 1.56-0.13 0.06-0.07-0.72-0.13-0.81 0.03-3-0.22-3.22 0.12-1.15 0.04-1.94 0-3.22-0.17 0.5-0.03 2.49-0.07 3.58-0.24 0.32-0.1-1.17-0.22-1.43-0.16 2.59-0.02 5.55 0.15 8.24 0.07-0.01 0.06-0.44 0.07-0.72 0.07 1.36 0 7.37-0.37 7.88-0.32-4.99-0.22-12.32-0.37-19.7-0.01 5.09-0.77 11.85-0.3 15.76-0.03 1.05-0.19 1.45-0.3 2.15-0.17-1.13-0.36-1.85-0.22-3.58-0.14 0.15-0.06 1.39-0.3 1.07-0.13-0.35-0.19-0.99-0.15-2.15-0.17 2.39-0.08 6.04-0.3 8.24-0.25-0.11-0.3-1.19-0.37-2.15-0.1 0.72-0.24 1.24-0.3 2.15-0.31-4.99-0.58-10.3-0.45-16.47-0.31 2.9-0.27 8.3-0.37 11.1-0.15-1.7-0.07-7.51 0.08-6.8 0-1.05-0.17-1.33-0.3-1.79 0.06 2.84 0 4.04-0.15 6.45-0.27-1.9 0.02 2.3-0.07 3.94-0.12-0.93-0.16-2.24-0.07-3.22-0.02-0.45-0.15-0.36-0.15 0-0.05-3.1-0.31-7.99-0.45-11.82-0.21 2.14 0.03 6.96-0.07 8.59-0.12-2.16-0.15-4.76-0.15-7.52-0.23 1.23-0.26 3.86-0.15 5.73-0.09-0.06-0.06-0.65-0.07-1.08-0.09 0.06-0.06 0.65-0.07 1.08-0.17-1.44-0.03-4.41-0.07-6.45-0.05-0.36-0.17-0.37-0.15-1.08-0.22 0.24 0.07 0.77 0 1.43-0.15-0.1-0.15-0.96-0.22-1.43-0.29 1.62 0.11 2.71 0 5.37 0.05 0.78-0.08 2.28-0.07 0.72 0.23-3.49-0.37-3.87-0.15-2.15-0.04-0.34-0.07-1.2-0.15-2.86-0.18 0.7-0.15 2.38-0.15 3.94-0.36-2.75-0.09 1.96-0.15 3.94-0.12 1.09-0.07-1.55-0.07-2.15-0.02-0.84-0.12-1.34-0.07-2.51-0.23 0.54-0.12 2.75-0.15 4.3-0.44-3.32-0.02-6.84-0.15-11.1-0.13 1.07-0.08 6.86-0.15 2.15 0-0.84-0.13-1.06-0.07-2.15-0.18 2.89 0 8.02-0.15 10.03-0.11-0.44-0.14-1.23-0.15-2.15-0.27 0.33-0.05 1.06-0.08 2.15-0.23-0.18-0.26 0.64-0.52 0.36-0.27-1.59-0.11-5.22-0.15-7.88-0.07 0.99-0.18 1.76-0.22 2.86-0.17-1.34-0.16-3.52-0.3-5.01-0.15 1.56-0.02 2.72 0 3.58 0.06 2.67 0-0.04-0.22-2.51-0.05-0.71-0.23-0.82-0.3-1.43-0.1-2.51-0.01-5.92-0.15-8.24-0.61 2.77-0.06 10.39-0.3 15.76-0.39-4.99-0.84-8.32-0.74-15.04-0.34-0.55 0.04 2.34-0.3 1.79 0.3-8.68 0.12-20.97 0.07-27.58-0.09 0.06-0.06 0.65-0.07 1.08-0.05-1.43 0.17-4.68 0.07-7.52-0.14 0.98-0.05 6.56-0.15 5.37-0.13-2.6 0.03-6.58-0.22-8.59-0.18 7.88-0.04 15.98-0.07 25.43v2.51c0.05 1.3-0.13 1.3-0.07 0v-2.51c-0.2-5.69 0.03-16-0.15-24.71-0.08 9.96-0.13 21.06-0.15 32.59-0.17-0.27-0.03-2.01-0.08-2.87-0.1-1.44-0.14-4.69 0-6.09-0.2-0.2-0.21-0.52-0.22-2.51 0.2 1.41 0.07-0.17 0.22-0.72-0.17 0.25-0.09-1.02-0.22-1.79 0-0.84 0.2 0.13 0.15 0.72 0.05-7.12 0.14-16.88 0.22-24.71v-3.22c0.16-0.26 0.04 3.87 0.07 5.37 0.35-6.93-0.23-11.42 0.07-16.47-0.1 0.11-0.06 0.9-0.07 1.43-0.11-5.48-0.08-8.48 0.07-13.25 0-1.41-0.38-1.95-0.07-2.87 0.33 3.39 0 12.83 0.22 17.91 0.04-5.9 0.02-12.53 0-18.26-0.06-0.54-0.11 0.1-0.3-0.36-0.09-2.7 0.26-3.29 0.15-6.09-0.1 0.11-0.06 0.9-0.07 1.43-0.26-1.14 0.34-3.46-0.07-4.3-0.04-1.65 0.05-5.07 0-7.88-0.04-2.27-0.22-6.89-0.07-1.43 0.17-0.85 0.03-3.22 0.07-4.66 0.04-0.55 0.08-0.02 0.07 0.36 0.01 6.17 0.03 8.85 0.07 13.25 0.14-5.88 0.04-13.64-0.15-16.83-0.17-1.8-0.02-5.13-0.07-7.52 0.16 0.07 0.03 4.6 0.07 6.45 0.19-4.88 0.16-13.16 0.15-18.98 0.07 0.01 0.06 0.44 0.08 0.72 0.39-11.35 0.19-24.09 0.3-39.75-0.32 1.6-0.06-2.05 0.07-2.51 0.17 1.56 0.03 4.65 0.07 6.8 0.29-0.95-0.15-6.83 0.3-6.8v2.86c0.17-2.32 0.02-7.2 0.15-8.59 0.17 1.2 0.03 3.93 0.07 5.73 0.34-6.2 0.23-10.47 0.37-17.91 0.17 0.27 0.03 2.01 0.07 2.86 0.43-1.82-0.06-7.14 0.37-8.24-0.05 0.9-0.07 1.47 0.07 2.15 0 0.35-0.09 0.28-0.15 0.36-0.04 1.73 0.29 10.75 0.07 13.61 0.01-0.15-0.05-1.34-0.15-3.22 0.1-1.4 0.09-4.5 0-5.37-0.15 4.7 0 12.7 0.07 16.83 0.25-1.92-0.04-6.54 0.45-6.44 0.05-2.66 0.04-4.37 0.07-6.45 0.17 0.97 0.03 3.45 0.07 5.01 0.19-4.49 0.19-10.84 0.07-15.76 0.13-2.23 0.05 1.79 0.07 1.79 0.18 0.03 0-3.96 0-3.94 0.03-3.08 0.3-13.4 0-16.11 0.12 0.52 0.16 1.4 0.15 2.51 0.17-0.38 0.03-2.25 0.07-3.22 0.28 0.77-0.01 2.38 0.08 4.3 0.25-0.21 0.11-1.35 0.07-2.15 0.17-0.46 0.16 3.05 0.15 4.66-0.09 0.57-0.15-2.03-0.07-2.51-0.31 11.95-0.16 23.69-0.3 32.23 0.29-2.7 0.19-7.35 0.15-11.46 0.24 2.25 0.15-3.14 0.22-4.3 0.2 2.44-0.13 5.78 0.3 7.88-0.15-0.16-0.17 0.94-0.15 2.51 0.31-2.41 0.24-5.3 0.22-8.24 0.28 2.05 0 4.34 0.22 7.52-0.02-1.11 0.22-3.87 0-5.37 0.42-0.38 0.14 2.66 0.22 3.94 0.21-1.56 0.17-3.92-0.07-5.01 0.1-1.33 0.01 1.06 0.15 0.72 0.09-2.34-0.17-6.12-0.07-9.67 0.29 3.32 0.29 8.15 0.45 12.89 0.12-1.68 0.12-5.84 0-7.52-0.11 0.16 0.03 0.46 0 1.07-0.11-2.06 0.14-2.95-0.22-5.73 0.06 0.8 0.25 0.96 0.22 2.15 0.12-6.52 0.27-14.54 0-21.13 0.19 0.29 0.19 1.47 0.3 2.15 0.14-0.04-0.09-1.2 0-2.15 0.17 1.86 0.36 5.36 0.3 7.16 0.09 0.06 0.13-0.08 0.15-0.36 0.1 3.98-0.19 7.91 0.15 12.53-0.07-0.01-0.06-0.44-0.07-0.71-0.29 6.45-0.24 14.71-0.15 21.13 0.55-4.11-0.26-10.97 0.22-16.83 0.03 2.4-0.02 7.54 0 11.1 0.36-0.61-0.18-4.4 0.22-4.3-0.09-0.78-0.19-1.46-0.15-2.86 0.26 1.47 0.25-1.96 0-1.79 0.34-3.65 0-6.59 0.22-10.39-0.03-0.56-0.13 0.31-0.15-0.36 0.14-1.76 0.11-2.76 0.3-3.94-0.06 8.36-0.09 15.74-0.15 26.14 0.16-0.4 0-2.36 0.22-2.51-0.29-0.48 0.26-5.78-0.07-8.24 0.13 0.66 0.22-0.16 0.37-0.36q-0.11-0.55-0.22-1.08c0.33 0.24 0.09-4.15 0-5.01-0.04-1.12 0.2-0.95 0.22-1.79-0.01-0.42-0.14-0.3-0.22-0.36 0.11-1.17-0.06-4.3 0.22-3.94 0.02-0.72-0.28-2.26-0.22-3.58 0.24 0.3 0.15 0.31 0.3-0.36-0.63-0.57 0.03-8.16-0.45-12.18-0.23 0.55-0.15 2.61-0.22 3.94 0.1-0.11 0.06-0.9 0.07-1.43 0.19 1.72 0.25 4.04 0.22 6.81-0.22-0.87-0.18-1.66-0.15-3.94-0.26-0.34 0 2.08-0.3 1.07 0.22 1.3-0.03 2.93 0.22 4.3 0.1-0.11 0.06-0.9 0.07-1.43 0.25 0.12 0.12 2.06 0.15 3.22-0.11 1-0.33-0.76-0.3 0.72-0.25-2.07-0.14-4.03-0.22-6.45-0.17 0.15-0.03 1.76-0.07 2.51-0.27-1.88-0.08-5.85-0.3-6.45 0.04-0.27-0.28-3.64 0.15-3.58-0.06 1.59 0.1 2.15 0.07 3.58 0.13-1.26 0.16-1.1 0.15 0.71 0.59-3.11-0.25-5.15-0.22-8.24 0.11 0.43 0.11 1.76 0.22 0.36 0.13 0.93-0.02 1.21 0.15 2.15 0.27-2.15 0-6.3 0.3-1.79-0.02 0.89-0.28 1.2-0.07 2.15 0.08-0.74 0-0.31 0.15-0.72 0.25 1.58 0.2 4.77 0.3 6.09 0.26-0.1 0-0.97 0.15-1.07 0.22 0.18-0.07 1.49 0.15 2.87-0.13-0.09-0.17-0.62-0.15-1.43 0 2.77-0.09 5.79 0.07 8.59 0.1-0.07 0.14-1.49 0.15 0 0.22-0.3-0.04-1.15 0-1.79 0.14 0.15 0.06 1.39 0.3 1.07 0-2.29-0.32-2.38-0.15-5.73-0.29 0.96-0.09 3.75-0.22 4.66-0.1-4.45 0.27-10.62-0.22-14.68-0.15 1.9 0.26 4.61 0.07 6.09-0.12-1.73-0.46-6.55-0.07-6.45-0.07-1.77 0.04-4.82 0-3.22-0.05 0.96 0.15 0.69 0.22 1.07-0.17 1.51-0.11 2.58 0 4.3 0.13-1.04-0.17-2.48 0.07-3.58 0.26-0.56 0.04 1.21 0.22 1.07 0.07-0.25 0.11-1.83 0.37-2.15-0.39 2.09-0.35 4.76-0.45 6.8-0.09-0.06-0.06-0.65-0.07-1.07-0.24 1.9 0.35 2.82 0.22 5.37 0.17-0.16 0.03-1.77 0.07-2.51 0.25 1.36 0.03 4.21 0.22 6.45 0.22-1.53-0.11-3.52 0.07-4.3 0.16 0.3 0.06 1.85 0.22 2.15-0.18 0.22-0.11 0.22-0.07 1.79 0.25-0.76 0.31-1.25 0.45-3.22q-0.11-0.55-0.22-1.08c0.29-0.42-0.03-2.34 0-4.3 0.23-0.27 0.09 1.23 0.37 0.72 0.05 2.05-0.08 4.03 0 6.45 0.09 0.06 0.13-0.08 0.15-0.36 0.13 0.95-0.26 0.54-0.07 2.51 0.1-0.11 0.06-0.9 0.07-1.43 0.11 0.3 0.11 1.15 0.15 1.79 0.2-1.1 0.01-3.4-0.22-3.58-0.01-1.51 0.11 0 0.22 0-0.24-1.63-0.18-2.06-0.15-4.66 0.17 2.37 0.13 1.72 0.22 4.3 0.25-2.45 0.02-4.38 0-8.24 0.21 1.02 0.23 2.94 0.22 5.01 0.15-0.09 0.02-1.57 0.15-1.79 0.15 0.5-0.07 1.23 0.07 2.15h-0.22c0.28 7.02 0.42 11.84 0.67 17.91 0.06-1.98-0.05-6.37 0.07-7.16-0.27-3.13-0.54-6.38-0.45-8.59 0.1 0.32 0.21 3.09 0.22 0.72 0.18 0.99-0.1 2.84 0 4.66 0.31-3.86-0.13-6.87-0.07-9.67-0.16 1.84 0.02 3.34-0.15 4.3-0.14-1.85-0.02-3.32 0.07-5.01-0.19-0.62-0.3-1.64-0.37-2.86 0-0.84 0.2 0.13 0.15 0.72 0.06-1.07 0.15-3.77-0.07-5.01 0.17 1.06 0.35-2.33 0-1.79 0.69 0.45 0.37 6.77 0.74 10.03 0.16 0.06 0.03-1.27 0.07-1.79 0.14-0.78 0.05 2.62 0.07 3.58-0.1-0.11-0.06-0.9-0.07-1.43-0.09 2.64 0.07 5.01 0.15 7.88 0.29-1.05 0.16 4.26 0.52 5.73 0.05 0.21-0.13 2.8-0.07 3.22 0.03 0.53 0.1-0.14 0.22 0-0.03 1.62-0.17 2.06-0.07 4.66 0.09-0.4 0.15-0.31 0.15 0.36 0.19-0.16 0.12-1.55 0.3-1.79-0.05 1.65 0.02 5.82-0.22 8.24 0.29 0.9 0.07 4.93 0.15 8.24 0-1.3 0.36-3.49 0.07-3.94 0.54-0.01 0.04-4.91 0.45-4.66-0.2-6.03-0.11-11.55-0.3-15.04q-0.24-0.1-0.22 1.08c-0.32-2.35-0.07-6.52-0.22-8.95 0.22 0.58 0.03 1.13 0.15 1.79 0.19-1.05 0.05-3.59-0.22-3.58-0.01-1.49-0.03-2.99 0.15-3.58-0.5-1.32-0.16-4.47-0.59-6.09 0.38-0.05 0-0.59-0.07-2.15-0.07 0.01-0.06 0.44-0.07 0.72-0.27-0.23 0.06-1.63-0.22-2.15 0.07-0.4 0.18 0.09 0.22-1.07-0.03-0.53-0.1 0.14-0.22 0-0.02-0.94 0.29-0.28 0.22-1.43 0.15-0.31 0.15 1.82 0.22 0.72-0.02 0.62 0.31 2.94 0 3.94 0.25 0.97 0.29-2.9 0.15-3.94 0.27 0.95 0.09-2.73 0.22-3.58 0.07 0.2 0.11 1 0.15 0.36 0.1 2.08 0.07 3.98 0.15 6.81 0.31-1.9 0.04 3.1 0.37 3.94-0.36-0.68-0.22-3.73-0.59-4.3-0.37 0.7 0 1.94-0.3 2.51-0.04 1.13 0.23 0.81 0.15 2.15 0.07-0.22 0.27-0.83 0.22 0.36 0.18-0.3 0-1.85-0.07-2.15 0.39-1.4 0.32 4.42 0.52 3.94-0.02 4.09 0.53 6.18 0.45 11.46 0.23-0.03 0.29 1.02 0.3 2.87-0.07-0.26-0.11-0.65-0.15-1.08-0.21 0.05-0.14 1.49-0.15 2.51 0.16-0.05 0.03-1.52 0.08-2.15 0.12 0.72 0.27 1.33 0.3 2.51-0.09-0.06-0.13 0.08-0.15 0.36 0.41 7.34-0.03 11.49 0.45 18.98 0.32-0.58-0.04-2.5 0.08-4.3 0.21 2.57 0.14 4.56 0 7.52q-0.16-0.46-0.15-1.79c-0.16 0.05-0.03 1.52-0.07 2.15 0.09 0.37 0.21 0.35 0.3 0.72 0.05 1.19-0.15 0.58-0.22 0.36 0.29 2.99 0.37 8.65 0.3 14.33 0.29-3.92 0.14-7.73 0.3-11.1-0.24 1.66-0.29-4.03-0.15-5.37 0.17 0.16 0.03 1.76 0.07 2.51 0.14-10.45-0.09-18.1-0.45-28.29 0.06 0.07 0.07 0.36 0.15 0.36-0.06-2.54-0.25-3.92-0.15-6.45-0.03-0.53-0.1 0.14-0.22 0-0.08-2.95 0.21-6.67-0.07-9.67 0-0.26 0.13 5.33 0 1.79-0.4-1.16-0.25-4.99-0.45-7.16 0.34 1.21 0.57 3.88 0.89 6.09-0.28 3.44 0.34 7.65 0.15 10.39-0.34 5 0.46 10.71 0.3 17.19 0.26-0.32-0.02-1.44 0.15-2.51 0.28 5.44 0.21 12.21 0.15 16.11 0.28-6.35 0.23-15.27 0.15-22.2-0.21 1.43-0.11 2.73-0.15 5.37-0.34-1.96-0.03-5.22-0.07-6.8 0.09 0.06 0.06 0.65 0.07 1.08 0.17-0.73 0.03-2.98 0.08-4.3 0.4 15.24 0.5 31.08 0.67 45.84-0.04 0.63 0.09 2.1-0.07 2.15v-2.51c-0.04-6.14-0.28-11.33-0.3-17.55-0.22 0.87-0.09 3.4-0.3 4.3 0.04 0.55 0.08 0.02 0.07-0.36 0.02 10.92 0.06 22.43 0.15 33.66 0.06 7.3-0.08 12.29 0 21.13 0.23-3.29-0.02-6.91 0.22-9.31 0.17 7.86-0.08 15.73 0 23.64 0.12-0.52 0.16-1.4 0.15-2.51 0.15 3.52 0.2 8.4-0.07 11.82 0.33-2.17 0.16 6.17 0.15 1.79 0.07 4.25 0.08 8.59 0.15 13.97-0.25-0.49-0.02-4.1-0.22-5.73zm-0.3 63.74c0.13-1.24-0.06-2.37 0-4.3 0.13 0.48 0.31 4.02 0 4.3zm0.08 3.94c0.09 0.47 0.19 4.03-0.08 3.94 0.03-1.56-0.07-1.83 0.08-3.94zm-0.08-131.43c-0.15 0.7-0.01-3.03-0.15-3.58 0.17-1.56 0.03-4.65 0.07-6.8 0.17 1.44 0.03 4.41 0.07 6.45-0.02 0.61 0.13 0.93 0 1.07v2.87zm-1.26-50.85c-0.27 0.34-0.1-1.41-0.15-2.15 0.19 0.04 0.15 1.2 0.15 2.15zm-0.52 206.28c-0.17-1.23-0.06-2.15-0.15-3.23 0.29 0.44 0.18 2.03 0.15 3.23zm-1.49 9.67c0.25 0.64 0.06 2.43-0.22 2.51 0.08-1.15 0.01-1.56 0.22-2.51zm-1.86-234.93c-0.15-0.36-0.08-3.25-0.07-5.01 0.22 1.79 0.19 2.38 0.07 5.01zm-0.82-5.02c-0.17-0.15-0.03-1.77-0.07-2.51 0.11 0.5 0.21 1.85 0.07 2.51zm-0.08 5.73c-0.16-0.3-0.06-1.85-0.22-2.15 0.19-1 0.38 1.27 0.22 2.15zm-0.67-6.8c0.18-0.15 0.16 0.65 0.37 0.36 0 0.51-0.01 1.02 0.07 1.08-0.02 0.49-0.19 0.3-0.3 0.36 0.06-1.1-0.2-0.69-0.15-1.79zm-2.15 26.14c0.1 0.27 0.19 3.5-0.07 3.22 0.13-1.28-0.03-1.82 0.07-3.22zm-0.53 2.51c0.09 0.09 0.08 0.71 0 0.72h-0.15v-3.58c0.18 0.93 0.1 2.3 0.07 3.22 0.06 0.06 0.07-0.14 0.08-0.36zm-1.33-15.4c-0.15-0.61-0.16-1.85-0.15-3.23 0.11 0.78 0.13 2.02 0.15 3.23zm-0.97 6.09c0.15-0.48 0.04 3.38 0.07 4.66-0.07 3.08-0.16-3.2-0.07-4.66zm0.07 13.25c-0.23-4.46 0.09-5.22 0 0zm-0.52 7.52c-0.17-0.38-0.03-2.25-0.07-3.22 0.07-0.61 0.17 2.95 0.07 3.22zm-0.3 9.67c0.12-0.52 0.07-1.83 0.07-2.86 0.07-1.14 0.21 3.41-0.07 2.86zm-0.59 42.62c-0.17-0.61-0.03-2.73-0.08-3.94 0.19 1.32 0.11 2.11 0.08 3.94zm-0.08 0.35c0.17 0.5 0.03 2.5 0.08 3.58-0.17-0.5-0.03-2.49-0.08-3.58zm-0.29-32.94c0.18-4.46 0-8.68 0.08-13.25 0.01 0.36 0.33 0.97 0.15 1.07-0.19 3.57 0.16 8.12-0.23 12.18zm-0.08 13.96c0.12-0.59 0.06-2.1 0.07-3.22 0.17 0.65 0.22 3.01-0.07 3.22zm0.15-55.15c-0.13-1.06-0.16-2.58-0.15-4.3 0.11 1.12 0.15 2.65 0.15 4.3zm0 58.02c0.1 0.89-0.17 1.74 0 1.79-0.14 1.65-0.3-2.41 0-1.79zm-0.07 45.48c-0.27-1.56-0.13-9.55 0-3.22 0.02 0.75-0.01 2.03 0 3.22zm-0.23 56.23c-0.2-1.95-0.1-8.72 0-10.74-0.05 3.03 0.18 6.92 0 10.74zm-0.07-154c-0.12-0.75-0.15-1.89-0.15-3.22 0.12 0.75 0.15 1.88 0.15 3.22zm14.73 187.3c0.08 0.66-0.07 3.24-0.22 3.94-0.1-0.76 0.22-2.49 0.22-3.94zm0-95.98c-0.09 0.3-0.15-2.61-0.15-3.94 0.11 1.01 0.13 2.47 0.15 3.94zm-0.59-15.4c-0.24-1.66-0.22-5.1-0.22-8.59 0.27 1.91 0.22 5.38 0.22 8.59zm0.22-53.36c0.3 0.39 0.08 2.49 0.07 3.58-0.15-1.28 0.08-2.11-0.07-3.58zm0 24c0.07 0.24 0.07 1.43 0.07 2.86-0.17-0.75-0.3-2.08-0.07-2.86zm-0.15 103.85c0.01 0.3-0.03 0.34-0.07 0.36-0.29 0.09-0.14-2.39-0.15-3.22-0.05-8.06 0.3-18.14 0.15-26.14 0.26 10.89 0.02 18.89 0.07 29zm-0.22-103.85c0.12 0.62 0.12 3.68 0 4.3 0.06-1.92-0.13-3.06 0-4.3zm-8.41-13.61c0.37-0.49-0.02-4.64 0.22-5.73-0.44 1.1-0.04 3.19-0.22 5.73zm2.61-36.17c-0.18-1.5 0.2-3.05-0.08-5.01-0.06 0.52-0.11 1.13-0.3 1.07 0.23 1.34 0.11 4.01 0.38 3.94zm3.42 1.43q-0.27-3.05-0.37-5.73c-0.01 0.42 0.01 1.02-0.07 1.07 0-0.22-0.01-0.42-0.08-0.36 0.06 1.14-0.06 1.36-0.15 1.79 0.15 0.22 0.02 1.81 0.3 1.43 0.01-0.54-0.03-1.32 0.07-1.43-0.07 1.18 0.19 2.24-0.07 1.43 0.17 1.62 0.11 0.65 0 1.79 0.15 0.24 0.32 1.23 0.37 0zm1.86 132.87c-0.05-1.09 0.1-3.09-0.07-3.58 0.05 1.09-0.1 3.09 0.07 3.58zm-0.52-89.18c0.1 3.26-0.23 5.7 0.07 7.16-0.04-2.07 0.09-6.86-0.07-7.16zm-0.97-64.82c-0.28 0.82 0.23 3.11 0.22 1.43-0.29 0.57-0.03-1.55-0.22-1.43zm-0.07 25.79c-0.16-2.56 0.1 1.95-0.22 2.51-0.02-0.28 0-0.71-0.07-0.72 0 1.24 0.15 1.69 0.22 2.51 0.17-1.66 0.15-3.07 0.07-4.3zm0 9.31c-0.02-0.63 0.21-1.79 0-2.15-0.13 0.6-0.21 1.61 0 2.15zm-0.75-24.36c0 1.78-0.06 3.86 0.22 4.3-0.12-1.19-0.01-3.53-0.22-4.3zm-0.15-0.71c0.1 0.11 0.14 0.51 0.3 0.36 0.02-0.95-0.11-3.01-0.3-1.79 0.07 0.1 0.2 1.59 0.07 1.43 0-0.2-0.06-0.41-0.07 0zm-2.3 7.16c0.03 1.28-0.08 5.13 0.07 4.66 0.05-0.86-0.09-2.6 0.07-2.86 0.02 0.77-0.06 3.82 0.07 2.86-0.01-1.85 0.08-4.19-0.21-4.66zm-0.67 22.21c0.12-0.62 0.12-3.68 0-4.3-0.09 1.06 0.05 2.43 0 4.3zm-0.6-1.8c0.24-0.18 0.3-3.08 0.15-3.94-0.03 1.39-0.06 2.83-0.15 3.94zm-0.15-25.42c0.04 1.58 0.03 3.43 0.15 4.66 0.04-0.72 0.09-4.1-0.15-4.66zm-0.15 14.68c0.03 0.68-0.1 2.16 0.15 1.79v-1.79zm0.08 10.74c0.02 3.18 0.2 0.4 0-2.51-0.06-0.85 0 1.21 0 2.51zm-0.38 181.57c0.05 1.07 0.09 2.19 0.3 2.51-0.12-0.74-0.07-2.3-0.3-2.51zm0.08-195.17c-0.19 0.75-0.06 1.4-0.15 2.15 0.56 0.53 0.02-4.2 0.15-2.15zm0.15 3.93c-0.05-1.1-0.05-0.69 0-1.79-0.27-0.49-0.36 2.41 0 1.79zm0-4.29c0.13-4.97-0.31-1.48 0 0zm-0.08 9.67c0.12 1.9 0.13-3.32 0-5.01-0.16 2.05-0.04 4.31 0 5.01zm-2.08 10.38c0 3.15-0.05 6.41 0 10.74 0.02 1.98 0.32 6.59 0.15 8.59-0.13 1.51-0.13-1.13 0 0.72 0.1 1.39-0.13 3.22 0 4.3 0.42-1.04-0.07-5.96 0.37-5.73-0.41-12.26 0.31-24.96-0.08-41.18-0.07 4.68 0.08 9.86-0.15 14.33 0.04-4.92-0.12-4.94-0.07-0.72 0.11 1.31-0.08 2.46 0.15 3.58-0.34 1.51 0.02 9.27-0.22 13.25-0.14-2.41 0.18-5.27-0.15-7.88zm0.22-29.01c0.05 1.56-0.1 4.05 0.07 5.01 0.08-1.52 0.05-4.83-0.07-5.01zm-1.34 30.45c0.06 1.52-0.14 4.24 0.15 4.66-0.06-1.01 0.11-0.93 0.07-1.79-0.31 0.42 0.15-2.83-0.22-2.87zm10.2 32.59c0.03-6.16 0.03-1.72 0.15 1.79-0.17 0.73-0.03 2.98-0.07 4.3-0.15 1.66-0.19-4.51-0.08-6.09zm-0.52-63.39c-0.2 0.49-0.17 2.9-0.15 5.01-0.27-1.22-0.05-6.79-0.3-8.59 0.34 0.42 0.22 2.34 0.45 3.58zm-0.23-3.59c-0.24-0.93-0.07-2.6-0.15-5.37-0.02-1.77 0.2 3.53 0.15 5.37zm-0.67 14.33v2.86c-0.27-0.72 0.04-2.63-0.22-2.86 0.03-0.53 0.09 0.14 0.22 0zm-1.26-27.58c-0.07-0.76-0.23-1.06-0.22-2.15 0.31-0.07 0.31 1.35 0.45 2.15-0.11 0.79-0.18-0.45-0.22 0.36-0.08-0.07-0.04-0.36-0.01-0.36zm-0.45 27.94c0.07-1.05 0.07-1.1 0-2.15 0.29 1.3 0.41 2.27 0.15 5.01-0.17-0.65 0.28-2.49-0.15-2.86zm-0.52 214.52c-0.13-0.33-0.12-1.32-0.3-1.43 0.21-0.7 0.44-1.15 0.3 1.43zm-0.74-244.6c0.22 0.4-0.11 0.38-0.07-0.36-0.06 0.45-0.39 1.4-0.22 1.79-0.17 0.23-0.44-2.17-0.45-3.94 0.16 0.79 0.31 1.62 0.37 2.86 0.06-0.07 0.07-0.36 0.15-0.36-0.03-0.32-0.06-0.64-0.15-0.72 0.06-0.82 0.35 0.19 0.37 0.72zm-0.97 3.94c-0.22 0.08-0.26-1.28-0.15-1.79-0.14 0.15-0.13 1.02-0.37 0.72 0.22 0.3-0.06 1.94-0.07 3.22-0.21-0.09 0.24-2.97-0.15-2.86 0.07-0.62 0.17-1.38 0.3-0.72 0.06-1.14-0.12-1.11-0.15-1.79-0.27-1.71 0.16 0.96 0.22 0.72 0.2-0.83-0.08-5.23 0.07 0 0.1-0.11 0.06-0.9 0.07-1.43 0.11 1.16 0.3 1.9 0.37 3.22-0.07 0.16-0.13 0.31-0.15 0.72zm-0.15 6.08c-0.01 0.41-0.07 0.2-0.07 0-0.09 0.06-0.06 0.65-0.07 1.07h-0.37c0-0.61-0.06-0.93-0.15-1.07 0.01-0.41 0.07-0.2 0.07 0 0.07-0.36 0.12-1.58-0.07-1.43 0.25-0.71 0.02-0.57 0-1.79 0.12 0.57 0.34-0.17 0.37-1.08 0.22 0.23 0.16 2.31-0.08 1.43v1.43c0.07-0.16 0.13-0.32 0.15-0.72 0.24 0.83-0.16 1.6-0.07 2.86 0.11-0.3 0.11-1.15 0.15-1.79 0.11 0.08 0.03 1.07 0.15 1.08zm-0.74 0.36c0.18 1.74-0.11 4.06-0.07 5.37-0.13-1.05-0.01-3.29-0.52-2.51 0.04-0.33 0.21-0.54 0.07-0.71 0.02-0.63 0.28 0.54 0.37 0.71 0.24-0.67 0-1.63 0.15-2.86zm-1.34-1.79c-0.16-0.41 0-2.36-0.22-2.51 0.13-0.65 0.4 1.49 0.22 2.51zm-2.23 2.87c0.39 1.34 0.42 7.53 0.67 10.74-0.38-1.75-0.34-5.51-0.52-8.24-0.24 0.91 0.18 2.93-0.07 3.94-0.49 0.38-0.22-7.22-0.22-2.15q0.09 0.49 0.07 1.43c0.19-1.13 0.08-4.96 0.07-5.72zm0.59 11.46c0.12 0.13-0.06 0.63 0.07 0.72v5.01c-0.17-0.85-0.03-3.22-0.07-4.66-0.09-0.47-0.03-0.56 0-1.07zm-0.45-0.36c0.04 0.74 0 3.04-0.07 5.73-0.09-0.99-0.25-5.71 0-7.52 0.15 0.38-0.19 1.45-0.07 2.86 0.07-0.26 0.11-0.65 0.15-1.08zm-1.19-7.88c0.2-1.41 0.19 2.27 0.07 2.51-0.16-0.18 0.06-2-0.07-2.51zm-2.75 50.85c-0.01 0.34 0.27 3.76 0.07 5.73-0.3-0.79-0.11-4.3-0.07-5.73zm-0.3 122.12c0.1-0.11 0.06-0.9 0.07-1.43 0.18 1.04-0.07 3.67 0 6.44-0.36-1.62 0.05-2.97-0.15-5.01 0.01-0.4 0.07-0.2 0.08 0zm14.44-103.14c0.12-0.06 0.12 2.21 0 2.15-0.23-1.33-0.34-3.31-0.15-4.66 0.08 0.71 0.03 1.64 0.07 3.22 0.07-0.01 0.06-0.44 0.07-0.72z"/>
		<path class="s0" d="m364.06 145.72c-0.08 1.29-0.04 3.73 0.12 4.35h-0.22c0.41 5.1 0.48 11.45 0.61 18.76 0.07-0.01 0.05-0.41 0.05-0.67 0.16 4.69 0.01 13.83 0.5 20.1-0.11-0.4-0.12-0.13-0.22 0 0.25 3.34 0.33 6.46 0.55 11.38-0.14-0.9-0.41 0.09-0.43-2 0.14 0.03 0.08 1.11 0.25 1-0.12-4.71-0.4-5.49-0.33-9.04-0.1 0.11-0.04 0.84-0.04 1.34-0.24-2.65-0.23-7.61-0.41-11.72 0.05 7.64 0.41 15.68 0.49 22.45 0.01 0.9-0.05 2.64 0.2 4.35-0.06 0.79-0.22-1.11-0.21-2.01-0.2 2.5 0.24 3.27 0.32 6.03-0.16 0.06-0.07-1.19-0.12-1.67-0.22 3.74-0.05 12.38-0.03 17.1-0.08-0.08-0.07-0.66-0.17-0.67-0.22 0.23 0.09 0.71 0.04 1.34-0.34 0.73-0.28 3.05-0.22 5.37 0.04 1.46-0.13 0.06-0.09-0.67-0.15-0.76-0.05-2.81-0.31-3.01 0.09-1.08-0.02-1.82-0.09-3.01-0.16 0.47 0.04 2.33 0.02 3.35-0.23 0.31-0.14-1.09-0.26-1.33-0.09 2.42 0.13 5.2 0.37 7.7 0.07-0.01 0.05-0.41 0.05-0.67 0.11 1.27 0.2 6.9-0.16 7.38-0.45-4.66-0.55-11.52-0.9-18.41 0.12 4.77-0.45 11.11 0.12 14.75 0 0.98-0.16 1.36-0.24 2.02-0.2-1.06-0.41-1.72-0.32-3.34-0.14 0.14-0.02 1.3-0.27 1.01-0.13-0.32-0.22-0.92-0.21-2-0.11 2.24 0.08 5.66-0.08 7.71-0.25-0.1-0.33-1.11-0.43-2-0.08 0.68-0.2 1.17-0.24 2.02-0.44-4.66-0.86-9.62-0.89-15.4-0.23 2.72-0.04 7.77-0.07 10.39-0.2-1.59-0.27-7.02-0.11-6.36-0.03-0.98-0.21-1.24-0.35-1.67 0.14 2.66 0.1 3.78 0.02 6.03-0.32-1.77 0.09 2.15 0.03 3.69-0.15-0.86-0.22-2.09-0.16-3.01-0.03-0.42-0.16-0.33-0.15 0-0.13-2.89-0.52-7.46-0.76-11.04-0.15 2.01 0.21 6.5 0.16 8.04-0.18-2.02-0.28-4.45-0.35-7.03-0.2 1.15-0.16 3.62 0 5.36-0.09-0.05-0.08-0.61-0.1-1-0.09 0.06-0.05 0.61-0.05 1.01-0.21-1.34-0.14-4.13-0.25-6.03-0.06-0.34-0.18-0.34-0.18-1-0.22 0.23 0.09 0.71 0.04 1.34-0.16-0.09-0.17-0.89-0.26-1.33-0.24 1.52 0.18 2.53 0.14 5.02 0.07 0.73-0.01 2.13-0.06 0.67 0.14-3.27-0.47-3.61-0.21-2.01-0.05-0.32-0.11-1.12-0.23-2.67-0.16 0.66-0.09 2.23-0.04 3.69-0.44-2.56-0.03 1.84-0.04 3.69-0.09 1.03-0.11-1.45-0.13-2.01-0.05-0.79-0.15-1.25-0.14-2.34-0.22 0.52-0.05 2.57-0.03 4.02-0.53-3.1-0.2-6.4-0.45-10.38-0.1 1.01 0.1 6.41-0.09 2.01-0.02-0.79-0.16-0.98-0.13-2.01-0.1 2.71 0.22 7.51 0.12 9.38-0.12-0.41-0.17-1.15-0.21-2.01-0.26 0.31-0.02 0.99-0.02 2.01-0.24-0.16-0.25 0.61-0.51 0.35-0.31-1.48-0.25-4.88-0.36-7.37-0.04 0.93-0.13 1.65-0.15 2.69-0.2-1.25-0.26-3.29-0.43-4.68-0.1 1.46 0.05 2.55 0.1 3.35 0.13 2.5 0-0.04-0.29-2.34-0.07-0.66-0.25-0.76-0.34-1.33-0.17-2.34-0.17-5.53-0.37-7.7-0.54 2.61 0.22 9.72 0.12 14.75-0.53-4.66-1.06-7.75-1.15-14.05-0.35-0.5 0.1 2.19-0.25 1.69 0.07-8.12-0.44-19.62-0.66-25.8-0.09 0.06-0.05 0.61-0.05 1.01-0.09-1.34 0.04-4.38-0.13-7.04-0.11 0.92 0.13 6.14 0 5.03-0.2-2.43-0.15-6.16-0.45-8.03 0.04 7.37 0.38 14.94 0.61 23.78l0.07 2.35c0.09 1.21-0.09 1.22-0.07 0l-0.07-2.35c-0.35-5.32-0.39-14.97-0.81-23.11 0.22 9.31 0.47 19.7 0.73 30.49-0.18-0.25-0.08-1.88-0.15-2.68-0.13-1.34-0.26-4.38-0.16-5.69-0.21-0.18-0.22-0.48-0.29-2.34 0.23 1.32 0.06-0.16 0.2-0.68-0.17 0.23-0.12-0.95-0.27-1.67-0.02-0.79 0.21 0.12 0.17 0.67-0.13-6.66-0.3-15.79-0.44-23.12q-0.04-1.51-0.09-3.01c0.15-0.25 0.14 3.62 0.22 5.02 0.16-6.49-0.54-10.67-0.37-15.41-0.1 0.11-0.04 0.84-0.04 1.34-0.25-5.13-0.31-7.93-0.28-12.4-0.03-1.32-0.44-1.81-0.15-2.68 0.43 3.16 0.34 12 0.7 16.74-0.12-5.52-0.31-11.72-0.49-17.08-0.08-0.5-0.11 0.09-0.31-0.33-0.16-2.52 0.17-3.09-0.01-5.7-0.1 0.11-0.04 0.84-0.04 1.34-0.29-1.06 0.24-3.25-0.19-4.02-0.08-1.54-0.08-4.75-0.21-7.37-0.1-2.12-0.41-6.44-0.11-1.34 0.15-0.8-0.06-3.01-0.05-4.36 0.02-0.52 0.08-0.02 0.08 0.33 0.18 5.77 0.26 8.28 0.43 12.39-0.02-5.51-0.32-12.75-0.6-15.74-0.22-1.67-0.16-4.8-0.27-7.03 0.16 0.06 0.16 4.3 0.25 6.03 0.06-4.57-0.19-12.31-0.36-17.76 0.07 0 0.07 0.41 0.09 0.67 0.08-10.62-0.46-22.54-0.77-37.19-0.28 1.51-0.11-1.91 0-2.35 0.21 1.45 0.15 4.35 0.26 6.36 0.26-0.9-0.33-6.38 0.12-6.37l0.08 2.68c0.1-2.17-0.17-6.73-0.08-8.04 0.2 1.12 0.13 3.68 0.23 5.36 0.17-5.8-0.05-9.8-0.11-16.76 0.17 0.25 0.08 1.88 0.15 2.68 0.38-1.72-0.25-6.68 0.15-7.71-0.03 0.84-0.03 1.38 0.13 2.01 0 0.32-0.08 0.26-0.14 0.34 0 1.62 0.58 10.04 0.44 12.73 0-0.14-0.09-1.25-0.23-3.01 0.06-1.31-0.03-4.21-0.14-5.02-0.02 4.4 0.33 11.88 0.53 15.74 0.2-1.81-0.21-6.12 0.27-6.04-0.04-2.49-0.07-4.09-0.1-6.03 0.2 0.9 0.12 3.23 0.21 4.69 0.07-4.21-0.1-10.15-0.35-14.74 0.04-1.04 0.06-0.63 0.08 0.05 0 0.34 0.02 0.74 0.02 1.06 0 0.32 0.02 0.56 0.02 0.56 0.09 0.01 0.06-0.91 0.02-1.84-0.06-0.93-0.12-1.84-0.12-1.85-0.05-2.88-0.06-12.54-0.43-15.07 0.13 0.48 0.19 1.3 0.22 2.34 0.16-0.36-0.03-2.11-0.01-3.02 0.3 0.72 0.05 2.22 0.19 4.02 0.24-0.2 0.07-1.27 0.02-2.01 0.16-0.43 0.24 2.85 0.27 4.35-0.08 0.54-0.2-1.9-0.14-2.34 0.01 11.18 0.47 22.17 0.57 30.15 0.22-2.53 0-6.88-0.16-10.72 0.3 2.09 0.06-2.94 0.11-4.03 0.27 2.27 0.02 5.41 0.51 7.36-0.16-0.15-0.15 0.88-0.08 2.35 0.24-2.27 0.09-4.97 0-7.71 0.34 1.91 0.11 4.06 0.42 7.03-0.05-1.04 0.11-3.62-0.14-5.02 0.41-0.36 0.21 2.49 0.33 3.68 0.17-1.46 0.06-3.67-0.21-4.69 0.07-1.25 0.04 0.99 0.17 0.67 0.03-2.19-0.33-5.72-0.33-9.04 0.38 3.1 0.51 7.62 0.79 12.04 0.08-1.57-0.03-5.47-0.2-7.03-0.11 0.15 0.04 0.43 0.03 1-0.17-1.93 0.06-2.77-0.38-5.35 0.08 0.74 0.27 0.89 0.28 2-0.06-6.11-0.12-13.6-0.57-19.76 0.2 0.26 0.23 1.37 0.35 2 0.14-0.04-0.12-1.12-0.06-2.01 0.22 1.74 0.5 5 0.49 6.69q0.13 0.06 0.14-0.34c0.2 3.72 0.02 7.41 0.48 11.72-0.07 0-0.07-0.41-0.09-0.67-0.11 6.04 0.15 13.76 0.42 19.76 0.44-3.86-0.55-10.26-0.23-15.75 0.06 2.24 0.2 7.06 0.3 10.38 0.35-0.58-0.3-4.11 0.11-4.03-0.11-0.73-0.23-1.36-0.23-2.67 0.3 1.37 0.2-1.84-0.05-1.67 0.24-3.42-0.18-6.16-0.05-9.72-0.04-0.52-0.12 0.3-0.16-0.33 0.09-1.65 0.03-2.58 0.19-3.69 0.18 7.82 0.33 14.73 0.55 24.45 0.15-0.38-0.06-2.21 0.16-2.35-0.3-0.44 0.1-5.42-0.29-7.7 0.15 0.62 0.21-0.15 0.36-0.34q-0.13-0.51-0.25-1c0.34 0.21-0.02-3.89-0.13-4.69-0.06-1.05 0.18-0.89 0.18-1.68-0.02-0.39-0.14-0.28-0.23-0.33 0.08-1.1-0.17-4.02 0.12-3.69 0-0.68-0.34-2.11-0.32-3.34 0.25 0.27 0.16 0.28 0.29-0.34-0.65-0.52-0.19-7.63-0.77-11.38-0.22 0.52-0.08 2.44-0.12 3.69 0.1-0.11 0.04-0.84 0.04-1.34 0.23 1.6 0.36 3.77 0.41 6.36-0.25-0.8-0.23-1.55-0.25-3.68-0.27-0.31 0.06 1.94-0.27 1.01 0.26 1.21 0.05 2.74 0.34 4.01 0.1-0.11 0.04-0.84 0.04-1.34 0.25 0.11 0.17 1.93 0.23 3.01-0.08 0.94-0.35-0.7-0.28 0.68-0.3-1.93-0.25-3.77-0.4-6.02-0.16 0.15 0.02 1.65 0 2.35-0.32-1.75-0.24-5.47-0.47-6.02 0.04-0.26-0.38-3.4 0.05-3.36-0.02 1.49 0.16 2.01 0.17 3.35 0.1-1.18 0.13-1.04 0.17 0.66 0.5-2.93-0.39-4.81-0.44-7.7 0.12 0.4 0.16 1.65 0.23 0.33 0.16 0.87 0.01 1.13 0.21 2.01 0.21-2.02-0.17-5.89 0.25-1.68 0 0.84-0.25 1.13-0.02 2.01 0.06-0.69-0.01-0.29 0.13-0.67 0.29 1.47 0.32 4.45 0.46 5.68 0.26-0.1-0.03-0.9 0.12-1.01 0.22 0.16-0.03 1.4 0.23 2.68-0.13-0.08-0.19-0.57-0.19-1.34 0.08 2.59 0.07 5.42 0.3 8.04 0.1-0.07 0.1-1.39 0.15 0 0.21-0.29-0.08-1.08-0.05-1.67 0.15 0.13 0.1 1.3 0.33 1-0.06-2.15-0.39-2.22-0.3-5.35-0.27 0.91 0.01 3.51-0.1 4.36-0.22-4.16-0.01-9.94-0.62-13.73-0.09 1.78 0.38 4.3 0.24 5.69-0.17-1.61-0.63-6.12-0.25-6.03-0.12-1.65-0.09-4.51-0.09-3.02-0.03 0.9 0.17 0.64 0.25 1-0.13 1.42-0.04 2.41 0.12 4.02 0.1-0.98-0.24-2.32-0.02-3.35 0.25-0.53 0.08 1.14 0.25 1 0.07-0.24 0.06-1.72 0.31-2.02-0.33 1.97-0.22 4.46-0.26 6.38-0.09-0.05-0.08-0.61-0.1-1-0.19 1.78 0.43 2.63 0.37 5.02 0.16-0.15-0.02-1.65 0-2.35 0.29 1.27 0.14 3.94 0.4 6.02 0.18-1.43-0.2-3.29-0.04-4.02 0.17 0.28 0.11 1.73 0.28 2-0.17 0.21-0.11 0.2-0.03 1.68 0.23-0.72 0.28-1.18 0.36-3.03q-0.13-0.51-0.25-1c0.28-0.4-0.09-2.19-0.12-4.02 0.22-0.26 0.12 1.15 0.39 0.66 0.1 1.91 0.03 3.77 0.17 6.03q0.13 0.06 0.14-0.34c0.16 0.88-0.25 0.51 0 2.35 0.1-0.11 0.04-0.84 0.04-1.34 0.12 0.28 0.14 1.08 0.2 1.67 0.17-1.03-0.08-3.18-0.32-3.34-0.05-1.41 0.11 0 0.22 0-0.28-1.52-0.24-1.92-0.27-4.35 0.24 2.21 0.17 1.61 0.34 4.01 0.18-2.3-0.1-4.09-0.22-7.7 0.24 0.94 0.31 2.74 0.36 4.68 0.15-0.09-0.02-1.47 0.1-1.68 0.16 0.47-0.04 1.16 0.13 2.01h-0.22c0.45 6.57 0.76 11.06 1.15 16.73 0-1.85-0.22-5.96-0.12-6.7-0.36-2.92-0.71-5.95-0.68-8.03 0.11 0.3 0.3 2.89 0.24 0.66 0.2 0.92-0.03 2.66 0.12 4.35 0.2-3.61-0.32-6.42-0.33-9.04-0.11 1.73 0.1 3.13-0.03 4.02-0.19-1.73-0.11-3.11-0.06-4.69-0.21-0.57-0.35-1.52-0.45-2.67-0.02-0.79 0.21 0.12 0.17 0.67 0.03-1 0.05-3.53-0.21-4.69 0.19 0.98 0.29-2.19-0.05-1.68 0.7 0.4 0.55 6.32 1.01 9.36 0.16 0.05 0-1.19 0.03-1.68 0.12-0.73 0.12 2.45 0.17 3.35-0.1-0.1-0.09-0.84-0.11-1.34-0.02 2.47 0.21 4.69 0.36 7.36 0.26-0.99 0.28 3.98 0.67 5.34 0.05 0.19-0.05 2.62 0.01 3.02 0.05 0.5 0.09-0.13 0.22 0 0.02 1.52-0.11 1.94 0.05 4.36 0.08-0.38 0.14-0.3 0.16 0.33 0.18-0.16 0.08-1.45 0.25-1.68 0 1.55 0.18 5.44 0 7.71 0.31 0.83 0.2 4.61 0.37 7.7-0.03-1.21 0.26-3.27-0.03-3.69 0.54-0.03-0.09-4.6 0.32-4.37-0.36-5.64-0.42-10.8-0.7-14.06q-0.25-0.09-0.19 1.01c-0.39-2.19-0.24-6.1-0.46-8.37 0.23 0.53 0.06 1.06 0.2 1.67 0.16-0.99-0.04-3.36-0.32-3.34-0.05-1.4-0.1-2.79 0.05-3.35-0.53-1.22-0.28-4.18-0.76-5.68 0.37-0.06-0.01-0.56-0.13-2.01-0.07 0.01-0.05 0.41-0.05 0.67-0.28-0.21 0.01-1.52-0.28-2 0.06-0.38 0.18 0.08 0.19-1.01-0.05-0.5-0.09 0.14-0.22 0-0.05-0.88 0.28-0.27 0.19-1.35 0.14-0.3 0.2 1.7 0.24 0.66 0 0.58 0.39 2.74 0.11 3.68 0.27 0.9 0.21-2.72 0.04-3.69 0.29 0.88 0.02-2.55 0.13-3.36 0.08 0.19 0.14 0.93 0.16 0.33 0.16 1.95 0.18 3.72 0.33 6.36 0.26-1.79 0.12 2.9 0.48 3.67-0.37-0.62-0.32-3.49-0.71-4-0.35 0.67 0.06 1.81-0.23 2.35 0 1.06 0.25 0.75 0.21 2.01 0.06-0.21 0.25-0.79 0.23 0.33 0.17-0.29-0.05-1.73-0.13-2.01 0.36-1.32 0.44 4.13 0.63 3.67 0.09 3.83 0.7 5.76 0.75 10.71 0.23-0.04 0.32 0.94 0.37 2.67-0.08-0.24-0.13-0.61-0.18-1-0.21 0.05-0.1 1.4-0.08 2.35 0.16-0.05 0-1.42 0.02-2.01 0.14 0.67 0.31 1.23 0.36 2.34q-0.13-0.06-0.14 0.34c0.6 6.85 0.27 10.75 0.96 17.74 0.3-0.55-0.11-2.34-0.04-4.02 0.28 2.4 0.26 4.26 0.2 7.04q-0.18-0.42-0.2-1.67c-0.16 0.05 0 1.42-0.02 2.01 0.1 0.34 0.21 0.32 0.32 0.66 0.08 1.11-0.14 0.55-0.21 0.34 0.37 2.79 0.6 8.08 0.68 13.39 0.19-3.67-0.07-7.24 0-10.39-0.2 1.56-0.4-3.77-0.29-5.02 0.17 0.14 0.08 1.65 0.14 2.34-0.14-9.78-0.57-16.93-1.2-26.45 0.06 0.06 0.08 0.33 0.16 0.33-0.13-2.37-0.36-3.66-0.32-6.03-0.05-0.5-0.09 0.13-0.22 0-0.15-2.76 0.04-6.24-0.33-9.04 0-0.24 0.27 4.98 0.05 1.68-0.44-1.07-0.39-4.66-0.64-6.69 0.37 1.12 0.67 3.62 1.06 5.67-0.19 3.23 0.54 7.15 0.43 9.71-0.21 4.69 0.74 10 0.76 16.07 0.25-0.3-0.06-1.35 0.08-2.35 0.42 5.08 0.54 11.42 0.58 15.07 0.11-5.95-0.18-14.29-0.45-20.77-0.17 1.35-0.04 2.56 0 5.03-0.39-1.82-0.17-4.88-0.26-6.36 0.09 0.05 0.08 0.61 0.1 1 0.15-0.69-0.05-2.78-0.04-4.02 0.81 14.25 1.33 29.06 1.9 42.86-0.03 0.59 0.15 1.97-0.02 2.01l-0.07-2.34c-0.2-5.74-0.58-10.59-0.77-16.41-0.19 0.82 0 3.18-0.18 4.03 0.05 0.52 0.08 0.02 0.06-0.34 0.34 10.21 0.7 20.98 1.05 31.48 0.25 6.83 0.25 11.5 0.57 19.76 0.14-3.09-0.2-6.46-0.03-8.72 0.38 7.34 0.34 14.72 0.63 22.11 0.1-0.49 0.12-1.31 0.08-2.35 0.24 3.29 0.42 7.85 0.24 11.05 0.27-2.04 0.33 5.77 0.2 1.67 0.16 3.98 0.32 8.03 0.52 13.06-0.26-0.45-0.13-3.84-0.38-5.35zm2.13 53.58c0.19 0.57 0.1 2.56 0.18 3.68-0.2-0.8-0.22-2.18-0.18-3.68zm-3.57-119.25c-0.15-1.55-0.27-4.37-0.24-5.69 0.21 1.8 0.23 3.64 0.24 5.69zm3.57 126.96c0.23 0.66 0.03 2.09 0.09 3.01-0.24-0.69 0.05-1.77-0.09-3.01zm-3.14-112.22c0.21 4.01 0.54 12.89 0.57 19.76-0.09-0.05-0.08-0.61-0.1-1l-0.03-1.01c-0.19-3.25-0.06-5.55-0.37-7.7 0.43-1.18-0.58-4.6-0.51-7.36 0.31 0.04 0.13 2.68 0.32 3.34 0.25-1.17 0.04-3.32 0-5.03 0.18 0.72 0.16-0.09 0.12-1zm-0.83-13.38c0.14 0.57 0.22 3.44 0.12 4.02 0-1.8-0.21-2.86-0.12-4.02zm3.25 123.94c0.09-1.16-0.12-2.22-0.11-4.02 0.15 0.44 0.42 3.75 0.11 4.02zm0.18 3.68c0.11 0.44 0.3 3.76 0.03 3.69 0-1.46-0.12-1.71-0.03-3.69zm-3.6-122.92c-0.13 0.66-0.09-2.84-0.25-3.35 0.13-1.46-0.1-4.35-0.11-6.37 0.21 1.34 0.14 4.13 0.25 6.03 0 0.57 0.15 0.86 0.03 1 0 0 0.08 2.68 0.08 2.69zm-2.63-47.53c-0.26 0.33-0.14-1.32-0.21-2.01 0.19 0.03 0.18 1.12 0.21 2.01zm5.01 192.95c-0.2-1.14-0.12-2.01-0.24-3.01 0.3 0.4 0.23 1.89 0.24 3.01zm-1.23 9.09c0.27 0.59 0.12 2.27-0.16 2.35 0.05-1.08-0.03-1.46 0.16-2.35zm-8.15-219.69c-0.16-0.34-0.17-3.04-0.21-4.69 0.27 1.67 0.25 2.22 0.21 4.69zm-0.95-4.66c-0.17-0.14-0.08-1.65-0.14-2.34 0.13 0.46 0.26 1.73 0.14 2.34zm0.08 5.36c-0.17-0.28-0.11-1.72-0.28-2 0.16-0.94 0.41 1.18 0.28 2zm-0.86-6.35c0.17-0.14 0.18 0.61 0.38 0.32 0 0.48 0.02 0.95 0.1 1 0 0.46-0.18 0.28-0.29 0.34 0.03-1.03-0.22-0.64-0.2-1.67zm-1.45 24.52c0.11 0.25 0.28 3.27 0.01 3.02 0.1-1.2-0.08-1.7-0.01-3.02zm-0.46 2.36c0.1 0.08 0.09 0.67 0.02 0.67h-0.15l-0.1-3.34c0.21 0.86 0.16 2.15 0.16 3.01 0.07 0.06 0.07-0.13 0.06-0.34zm-1.75-14.37c-0.16-0.57-0.21-1.73-0.24-3.01 0.13 0.72 0.18 1.88 0.24 3.01zm-0.8 5.72c0.14-0.45 0.13 3.16 0.2 4.35 0 2.88-0.24-2.99-0.2-4.35zm0.43 12.4c-0.35-4.17-0.05-4.89 0 0zm-0.32 7.05c-0.18-0.35-0.09-2.11-0.16-3.01 0.06-0.57 0.25 2.76 0.16 3.01zm-0.04 9.05c0.1-0.49 0.02-1.71 0-2.68 0.04-1.07 0.3 3.18 0 2.68zm0.55 39.88c-0.19-0.57-0.1-2.56-0.18-3.68 0.23 1.23 0.16 1.97 0.18 3.68zm-0.07 0.33c0.18 0.46 0.09 2.33 0.17 3.35-0.18-0.46-0.1-2.33-0.17-3.35zm-1.18-30.81c0.06-4.17-0.23-8.12-0.28-12.4 0.02 0.33 0.35 0.9 0.18 1-0.09 3.34 0.38 7.59 0.1 11.4zm0.3 13.07c0.11-0.56 0-1.97-0.01-3.02 0.19 0.61 0.3 2.81 0.01 3.02zm-1.33-51.59c-0.16-0.99-0.23-2.41-0.26-4.01 0.14 1.04 0.22 2.47 0.26 4.01zm1.56 54.27c0.12 0.83-0.12 1.63 0.05 1.67-0.1 1.55-0.36-2.24-0.05-1.67zm1.14 42.54c-0.31-1.45-0.38-8.93-0.09-3.01 0.02 0.7 0.05 1.9 0.09 3.01zm1.28 52.59c-0.25-1.82-0.33-8.16-0.29-10.05 0.04 2.84 0.37 6.46 0.29 10.05zm-4.2-144.03c-0.14-0.7-0.21-1.76-0.24-3.01 0.14 0.7 0.21 1.76 0.24 3.01zm19.75 174.77c0.1 0.62 0.02 3.03-0.12 3.69-0.12-0.71 0.16-2.33 0.12-3.69zm-2.57-89.77c-0.08 0.28-0.22-2.43-0.25-3.68 0.14 0.94 0.2 2.31 0.25 3.68zm-1.01-14.39c-0.29-1.55-0.36-4.76-0.45-8.03 0.32 1.78 0.37 5.03 0.45 8.03zm-1.21-49.92c0.31 0.36 0.15 2.33 0.17 3.35-0.18-1.19 0.02-1.98-0.17-3.35zm0.65 22.45c0.08 0.23 0.11 1.33 0.15 2.68-0.19-0.69-0.36-1.94-0.15-2.68zm2.63 97.14c0.02 0.28-0.02 0.32-0.06 0.34-0.29 0.09-0.21-2.23-0.23-3.01-0.27-7.53-0.19-16.98-0.55-24.46 0.56 10.18 0.52 17.67 0.85 27.13zm-0.98-52.61c0.05 4.19 0.24 0.52-0.03-1-0.02 0.48-0.07 0.57 0.03 1zm-10.79-57.01c0.35-0.47-0.15-4.34 0.07-5.37-0.41 1.04 0.05 2.98-0.07 5.37zm1.63-33.91c-0.22-1.4 0.12-2.86-0.21-4.69-0.05 0.49-0.08 1.06-0.27 1.01 0.27 1.25 0.22 3.75 0.48 3.67zm3.46 1.24q-0.37-2.85-0.52-5.35c0 0.39 0.04 0.95-0.05 1.01-0.01-0.21-0.02-0.4-0.08-0.33 0.09 1.07-0.03 1.27-0.1 1.68 0.16 0.2 0.07 1.69 0.34 1.33 0-0.5-0.06-1.23 0.04-1.34-0.03 1.11 0.25 2.09-0.04 1.34 0.21 1.51 0.13 0.6 0.05 1.68 0.15 0.22 0.35 1.15 0.37-0.01zm5.42 124.22c-0.08-1.02 0.01-2.89-0.17-3.35 0.08 1.02-0.01 2.89 0.17 3.35zm-2.91-83.39c0.18 3.05-0.08 5.34 0.27 6.7-0.1-1.94-0.1-6.42-0.27-6.7zm-2.7-60.6c-0.26 0.77 0.32 2.9 0.26 1.33-0.28 0.54-0.07-1.45-0.26-1.33zm0.61 24.12c-0.23-2.39 0.15 1.82-0.16 2.35-0.02-0.26-0.02-0.66-0.09-0.67 0.02 1.16 0.19 1.57 0.29 2.34 0.13-1.55 0.07-2.88-0.04-4.02zm0.25 8.71c-0.04-0.59 0.16-1.68-0.06-2.01-0.12 0.57-0.17 1.51 0.06 2.01zm-1.39-22.76c0.05 1.66 0.05 3.61 0.34 4.01-0.16-1.11-0.11-3.3-0.34-4.01zm-0.17-0.66c0.1 0.1 0.16 0.47 0.31 0.33 0-0.89-0.19-2.81-0.35-1.67 0.07 0.09 0.24 1.48 0.11 1.34 0-0.19-0.07-0.38-0.07 0zm-2.12 6.76c0.07 1.2 0.06 4.8 0.2 4.35 0.02-0.8-0.16-2.43 0-2.68 0.04 0.72 0.04 3.57 0.15 2.68-0.06-1.73-0.04-3.92-0.35-4.35zm-0.07 20.79c0.11-0.58 0.02-3.45-0.11-4.02-0.06 1 0.11 2.27 0.11 4.02zm-0.64-1.66c0.23-0.17 0.22-2.89 0.04-3.69 0 1.3 0.02 2.65-0.04 3.69zm-0.83-23.78c0.08 1.48 0.12 3.21 0.27 4.35 0.02-0.67-0.02-3.83-0.27-4.35zm0.24 13.74c0.05 0.63-0.04 2.02 0.2 1.67l-0.05-1.68h-0.15zm0.36 10.05c0.11 2.97 0.21 0.37-0.07-2.35-0.08-0.8 0.02 1.13 0.07 2.35zm4.49 169.84c0.08 1 0.15 2.05 0.36 2.34-0.14-0.69-0.13-2.15-0.36-2.34zm-5.15-182.56c-0.17 0.71-0.03 1.31-0.09 2.01 0.58 0.48-0.1-3.93 0.09-2.01zm0.25 3.68c-0.08-1.03-0.07-0.64-0.05-1.67-0.28-0.45-0.29 2.27 0.05 1.67zm-0.11-4.02c0-4.66-0.35-1.38 0 0zm0.18 9.05c0.17 1.77 0.04-3.11-0.13-4.69-0.11 1.93 0.07 4.03 0.13 4.69zm-1.8 9.77c0.08 2.95 0.12 6 0.29 10.05 0.08 1.85 0.5 6.15 0.38 8.03-0.09 1.42-0.16-1.05 0.02 0.67 0.14 1.3-0.04 3.01 0.12 4.02 0.39-0.99-0.23-5.57 0.22-5.37-0.74-11.45-0.35-23.36-1.18-38.52 0.05 4.38 0.35 9.22 0.23 13.4-0.09-4.6-0.25-4.61-0.09-0.67 0.15 1.22-0.01 2.3 0.24 3.35-0.3 1.42 0.26 8.67 0.13 12.4-0.2-2.25 0.04-4.94-0.36-7.36zm-0.55-27.14c0.09 1.46 0.01 3.79 0.21 4.69 0.04-1.43-0.08-4.52-0.21-4.69zm-0.53 28.51c0.1 1.42-0.02 3.97 0.27 4.35-0.09-0.94 0.08-0.87 0.03-1.68-0.3 0.4 0.08-2.65-0.3-2.67zm11.07 30.19c-0.14-5.77-0.01-1.61 0.2 1.67-0.15 0.69 0.05 2.78 0.04 4.02-0.1 1.55-0.32-4.21-0.24-5.69zm-2.22-59.27c-0.18 0.47-0.09 2.71-0.02 4.69-0.3-1.13-0.23-6.35-0.53-8.03 0.35 0.38 0.28 2.18 0.55 3.34zm-0.32-3.35c-0.26-0.86-0.14-2.43-0.29-5.02-0.07-1.65 0.3 3.29 0.29 5.02zm-0.29 13.42l0.08 2.68c-0.29-0.67-0.03-2.46-0.3-2.67 0.02-0.5 0.1 0.13 0.22 0zm-2-25.76c-0.09-0.71-0.25-0.98-0.28-2 0.31-0.07 0.35 1.26 0.5 2-0.09 0.74-0.19-0.42-0.21 0.34-0.09-0.06-0.05-0.33 0-0.33zm0.3 26.15c0.04-0.98 0.04-1.03-0.06-2.01 0.33 1.21 0.47 2.11 0.28 4.68-0.19-0.61 0.21-2.33-0.22-2.67zm5.23 200.66c-0.14-0.3-0.16-1.23-0.34-1.33 0.19-0.66 0.41-1.08 0.34 1.33zm-7.3-228.77c0.23 0.37-0.1 0.36-0.08-0.33-0.05 0.42-0.36 1.32-0.18 1.68-0.17 0.22-0.5-2.02-0.55-3.67 0.18 0.73 0.35 1.5 0.45 2.67 0.06-0.07 0.06-0.34 0.14-0.34-0.04-0.3-0.08-0.6-0.17-0.67 0.04-0.77 0.35 0.17 0.39 0.66zm-0.86 3.72c-0.22 0.08-0.3-1.19-0.2-1.67-0.14 0.15-0.11 0.96-0.35 0.68 0.23 0.27-0.01 1.81 0.01 3.02-0.21-0.08 0.16-2.78-0.23-2.67 0.05-0.59 0.13-1.3 0.28-0.68 0.03-1.07-0.15-1.03-0.2-1.67-0.32-1.59 0.19 0.89 0.24 0.66 0.18-0.78-0.22-4.89 0.07 0 0.1-0.11 0.04-0.84 0.04-1.34 0.14 1.08 0.35 1.77 0.46 3-0.06 0.15-0.12 0.3-0.13 0.67zm0.01 5.69c0 0.38-0.07 0.19-0.07 0-0.09 0.06-0.05 0.61-0.05 1.01h-0.37c-0.01-0.56-0.08-0.86-0.18-0.99 0-0.38 0.07-0.19 0.07 0 0.06-0.34 0.08-1.48-0.11-1.34 0.23-0.67 0-0.53-0.05-1.68 0.13 0.53 0.34-0.17 0.34-1.02 0.22 0.21 0.22 2.16-0.04 1.34l0.04 1.34c0.06-0.15 0.12-0.3 0.13-0.67 0.26 0.77-0.12 1.5 0 2.68 0.1-0.29 0.08-1.08 0.1-1.68 0.11 0.07 0.05 1 0.18 1zm-0.73 0.36c0.23 1.62 0 3.8 0.07 5.02-0.16-0.98-0.1-3.08-0.59-2.33 0.03-0.31 0.19-0.51 0.05-0.67 0-0.59 0.29 0.49 0.39 0.66 0.22-0.63-0.05-1.53 0.08-2.68zm-1.39-1.63c-0.17-0.38-0.07-2.21-0.29-2.34 0.11-0.61 0.44 1.38 0.29 2.34zm-2.15 2.74c0.43 1.24 0.62 7.03 0.96 10.03-0.43-1.63-0.49-5.15-0.74-7.69-0.22 0.86 0.25 2.74 0.03 3.69-0.48 0.37-0.42-6.75-0.28-2q0.1 0.46 0.11 1.34c0.16-1.06-0.05-4.65-0.08-5.37zm0.9 10.7c0.12 0.11-0.05 0.59 0.09 0.67l0.13 4.69c-0.19-0.79-0.11-3.01-0.2-4.35-0.1-0.44-0.04-0.53-0.03-1zm-0.46-0.32c0.06 0.69 0.08 2.84 0.08 5.36-0.12-0.92-0.4-5.33-0.2-7.03 0.15 0.35-0.15 1.37 0 2.68 0.06-0.25 0.09-0.61 0.12-1.01zm-1.4-7.34c0.16-1.33 0.26 2.12 0.14 2.34-0.16-0.16 0-1.87-0.14-2.34zm-1.39 47.65c0 0.32 0.37 3.51 0.23 5.36-0.33-0.73-0.22-4.02-0.23-5.36zm2.98 114.23c0.1-0.11 0.04-0.84 0.04-1.34 0.21 0.96 0.03 3.43 0.17 6.03-0.4-1.51-0.03-2.78-0.28-4.69 0-0.38 0.07-0.19 0.07 0zm11.66-96.88c0.12-0.06 0.18 2.06 0.06 2.01-0.26-1.24-0.43-3.09-0.27-4.35 0.1 0.66 0.08 1.53 0.16 3.01 0.07-0.01 0.05-0.41 0.05-0.67z"/>
		<path fill-rule="evenodd" class="s0" d="m269.21 176.63c0.14 0.17 0.39 0.14 0.63 0.12-0.04-0.42 0.19-0.54 0.62-0.51-0.07-0.22-0.13-0.44 0.3-0.57 0.81-0.33 0.72 1.05 1.51 0.76-0.24 0.11-0.15 0.44 0.17 0.34-0.15-0.39 0.95-0.55 1.31-0.84-0.06-0.55-0.63-0.12-0.8-0.47 0.71-0.65 2.07-1.05 2.79-1.34 0.15-0.39-0.05-0.84 0.28-1.2-0.02 0.63 0.17 0.71 0.88 0.64q0.02-0.47 0.45-0.85c0.68 0.79 0.69-0.93 1.16-0.56 0.11 0.28-0.53 0.42-0.22 0.74q0.6-0.32 1.01-0.28c-0.06-0.22-0.27-0.47-0.01-0.63 0.13 0.18 0.19 0.51 0.48 0.4 0.12-0.23 1.14-0.69 1.38-1.3q0.21 0.6 0.95 0.18c0.07-0.43-0.97-0.24-0.33-0.69q0.47 0.1 0.95 0.18c-0.03-0.64 0.82-0.3 1.01-0.28-0.07-0.69 0.25-1.31 0.81-1.88 0.43 0.73 0.24 0.04 1.18 0.07 0.11 0.23-0.33 0.35-0.3 0.57 0.76-0.92 1.11-0.19 2.03-0.55-0.08-0.73-1.11 0.36-1.26-0.24 0.78-0.22 0-0.73 1-0.91q0.16 0.34 0.33 0.69c0.82-0.37-0.05-1.05 0.75-1.42 0.97-0.61 0.97-0.43 1.46-1.13 0.55 0.09 0.07 0.67 0.58 1.2 0.78-0.16 0.23-0.58 0.13-0.91 0.42-0.39 0.43-0.86 1.15-1.19 0.06 0.22-0.23 0.59 0.25 0.51-0.03-0.83 0.5-0.18 1.16-0.56-0.01-0.16-0.16-0.34 0.06-0.45-0.09-0.37-0.48-0.19-0.71-0.29 0.67-0.51 0.7 0.21 1.18 0.07-0.15-0.39 0.95-0.55 1.31-0.84-0.04 0.55 1.15 0.38 1.1-0.11-0.2 0.05-0.46 0.22-0.55 0.05 0.94-0.36 0.92-0.21 1.31-0.84 0.56 0.82 0.45-0.46 0.85-0.62 0.17 0.22 0.52 0.11 0.71 0.29-0.23 0.22-0.44 0.44-0.53 0.68 0.4-0.1 0.46 0.45 1.1-0.1q-0.17-0.35-0.33-0.69c0.66-0.36 0.47-0.56 1.46-1.13 0.06 0.65 0.62 0.36 1.03 0.35-0.4-0.74 0.63-0.36 0.93-0.45-0.38-0.61-1.28-0.01-1.49-0.13 0.19-0.91 0.81-0.49 1.71-0.61 0-0.42 0.52-0.73 0.6-1.14 0.79 0.4 1.15-0.45 1.86-0.9 0.13 0.23 0.07 0.43 0.02 0.63 0.5-0.07 1.05-0.23 1.41-0.05-0.12-0.23-0.07-0.43-0.02-0.63-0.26-0.17-0.91 0.4-1.1 0.1 0.68-0.3 0.86-0.93 1.25-0.39 0.69-0.18 0.3-0.57 0.76-0.79 0.58 0.04-0.06 0.92 0.88 0.64-0.01-0.16-0.16-0.34 0.07-0.46 0.9-0.03 0.95-0.51 1.94-0.73-0.17-0.55-0.37-1.11 0.12-1.54-0.23 0.55 0.52 1.48 0.88 0.64-0.33 0.07-0.58 0-0.71-0.29 0.29-0.15 0.22-0.38 0.62-0.51-0.48 0.99 1.92 0.44 1.87-0.27-0.75 0.22-0.83-0.83-1.51-0.76 1.09-0.9 3.85-2.75 5.03-2.64-0.5 0.37 0.55 1.04 0.12 1.43 0.37-0.12 1.34 0.27 1.33-0.22q-0.48-0.08-0.95-0.18c1.16-0.36 1.53-0.76 1.96-0.09-0.37-0.56 0.74-1.25 1.15-1.19-0.08-0.22-0.13-0.44 0.3-0.57 0.16 0.34-0.53 0.52-0.13 0.91 0.7-0.7 0.9-1.5 1.51-2.21 0.09 0.37 0.48 0.19 0.71 0.29-0.29 0.26-1.3 0.38-1.08 0.73 0.3-0.18 0.89 0.65 0.86 0q-0.31 0.09-0.4-0.23c0.53 0.07 0.97-0.77 1.56-0.33q0.37-0.72 0.75-1.42c0.46 0.45-0.11 0.71-0.05 1.09 0.58-0.31 0.66-0.71 0.91-1.08-0.41 0.3-1.25-0.45-0.33-0.69-0.33 0.73 1.05 0.2 1.43 0.59-0.16 0.12-0.46 0.23-0.38 0.4 0.57-0.3 0.56-0.67 1.16-0.56 0-0.67-0.69-0.84 0.12-1.54 0.14 0.33 0.35 0.28 0.55-0.05 0.11 0.24 0.29 0.32 0.48 0.4-0.57 0.03-0.98 0.8-0.3 0.57-0.06-0.22 0.27-0.36 0.61-0.51-0.09-0.28-0.39-0.59-0.1-0.8q0.34-0.16 0.7-0.34c-0.47 0.52 1.17 0.55 1.18 0.07-0.73 0.15 0.12-0.62-0.56-0.58 0.51-0.05 0.53-0.89 0.93-0.45 0.05 0.23-0.21 0.23-0.47 0.22 0.17 0.24 0.22 0.67 0.57 0.58 0.34-0.51 0.26-1.1 0.98-1.53 0.19-0.07 0.98 0.23 0.48 0.41-0.72-0.14-0.97 0.61-1.23 1.02 0.94-0.34 0.99-0.85 2.01-1.18-0.5-0.5 0.62-0.66 0.85-0.62-0.3-0.34 0.08-1.32 0.68-0.97-0.18 0.15-1.01 0.91-0.22 0.74-0.06-0.22 0.28-0.37 0.61-0.51 0.22-0.38-0.31-0.89 0.28-1.2 0.83 0.15 0.05-0.37 0.85-0.62-0.15 0.49-0.05 1.03-0.12 1.54 1.39-0.6-0.62-0.88 0.75-1.42-0.28 0.51 0.32 0.5 0.8 0.47-0.14-0.34 1.05-0.14 0.76-0.79-0.44 0.18-0.83 0.26-1.1 0.1 0.5-0.61 1.3-0.42 1.69-1.24 0.1 0.24 0.29 0.33 0.48 0.41 0.76-0.65 1.68 0.08 1.79-0.44-0.83 0.08 0.27-0.76 0.36-1.03 0.13 0.3 0.39 0.36 0.71 0.29-0.19-0.27 0.06-0.55 0.23-0.11 0.86-0.25-0.04-0.84 0.91-1.08 0.38 0.3 0.12 1.36 0.33 0.69-0.02-1.15 1.05-0.47 1.93-1.35-0.09-0.61 0-0.41-0.41-0.86-0.77 0.52-0.76 1.02-1.54 0.96 1.2-0.63 0-0.63-0.27-1.15 0.57-0.21 0.72 0.39 1.41-0.04 0.26-0.42 0.5-0.84 0.83-1.25 3.58-1.03 7.35-4.4 10.93-5.26q0.08 0.18 0.17 0.34c-1.5 0.68-2.41 0.84-2.08 1.64-0.29 0.1-0.38-0.15-0.48-0.41-0.58 0.78-1.83 0.47-1.93 1.35-0.13-0.3-0.39-0.36-0.71-0.29 0.08 0.28 0.39 0.6 0.1 0.8q-0.09-0.17-0.17-0.35c-1.15 0.69-1.47 0.63-2.16 1.47-0.8-0.05-0.9 0.44-1.63 0.78-0.12-0.11-0.17-0.34-0.4-0.23-0.56 0.65 0.89 0.23 0.33 0.69-0.58 0.11-0.9-0.27-1.64 0.15 0.37 0.49 0 0.83 0.03 1.26 0.69-0.67 2.17-0.61 2.39-1.58 1.08 0.42 1.08-0.9 2.41-0.95 0.15-0.39-0.17-0.87 0.6-1.13-0.4 0.52-0.27 0.57 0.18 0.97 1.2-0.57 1.7-0.47 1.92-1.35 0.37 0.44 0.24-0.44 0.62-0.51q0.08 0.17 0.16 0.34c1.04-0.75 1.71-1.06 2.39-1.57 0.12 0.11 0.17 0.33 0.4 0.23-0.05-0.6 0.8-0.26 1.16-0.56-0.06-0.22-0.27-0.47-0.02-0.63 0.42 0.51 0.84-0.28 1.71-0.61q0.08 0.17 0.16 0.34c0.83-0.5 0.96-0.52 1.69-1.24 0.47 0.33 1.83-0.32 1.86-0.9-0.35 0.23-0.74 0.07-0.4-0.23 1.27 0.41 1.96-0.85 3.82-0.99-0.07-0.22-0.13-0.44 0.3-0.57 0.12 0.11 0.17 0.33 0.4 0.23 0.12-0.29 0.41-0.26 1.08-0.73-0.29-0.42 0.27-0.68 0.68-0.96 0.34 0.12 0.79 0.03 1.03 0.35 0.87-0.48 1.13-0.74 1.53-1.58 0.7-0.07 0.19 0.95 0.65 0.75-0.1-0.59 0.58-0.07 0.93-0.45 0.07-0.96 1.95-1.64 2.56-1.23q-0.03-0.24 0.38-0.4c0.73 1.12 0-0.27 0.3-0.57 0.15 0.26 0.26 0.61 0.71 0.29-0.05-0.34-0.56-0.27-0.25-0.51 0.74 0.34 0.89-0.23 1.39-0.67 0.12 0.62 0.95-0.17 0.56 0.57 1.11-0.2-0.39-0.91 0.28-1.2 0.51 0.27 0.77-0.61 1.01-0.28 0.14 0.21-0.47 1.02 0.1 0.8q0.01-0.46 0.45-0.85 0.12 0.25 0.25 0.52c0.91-1.01 1.56-1.19 2.87-1.17-0.12-0.34-0.12-0.65 0.13-0.91 0.39 0.31 0.95-0.63 1.31-0.84-0.03 0.43-0.74 1.42 0.27 1.14 0.26-0.42 0.5-0.84 0.83-1.25 0.39 0.99 1.08-0.51 1.5 0.13 0.59-0.71 1.34-1.15 2.17-0.83-0.25-0.36-0.25-0.67 0.13-0.91 1.01 0.56 4.06-1.36 4.58-1.78 0.13 0.2 0.27 0.37 0.63 0.12 0.38-0.19-0.1-0.54 0.22-0.74 0.34 0.12 0.79 0.05 1.18 0.07 0.01-0.26 0.06-0.51 0.22-0.74 0.06 0.1 0.13 0.19 0.32 0.06 0.11 0.23-0.33 0.35-0.3 0.57 0.69-0.44 1.03-0.19 1.56-0.33 0-0.42 0.4-0.76 0.91-1.08 0.08 0.17-0.09 0.29-0.07 0.46 0.29-0.1 0.65-0.35 0.78-0.16 0.7-0.18 0.3-0.57 0.77-0.79 0.73 0.3 1.34-0.63 2.49-0.78-0.06-0.22-0.28-0.47-0.02-0.63 0.56 0.03 0.98 0.33 1.73 0.02-0.01-0.16-0.16-0.34 0.07-0.46 0.61 0.52 0.94-0.49 1.79-0.44-0.06-0.22-0.28-0.47-0.02-0.63 0.61 0.22 1.11-0.89 0.86 0 0.64-0.88 1.26-0.26 1.63-0.78 0.79-0.45-1.05-0.07-0.25-0.52 0.78-0.72 0.44 0.71 1.03 0.35-0.12-0.34 0.73-0.49 0.76-0.79-0.3 0.58 0.26 0.3 0.71 0.29-0.28-0.42-0.27-0.78 0.36-1.02 0.11 0.23-0.33 0.35-0.3 0.57 0.5 0.08 1.84-0.57 2.09-1.01 1.64 0.29 3.85-2.01 5.51-2.23q0.08 0.17 0.17 0.34c0.86-0.25-0.04-0.84 0.91-1.08 0.73 0.26 0.89-0.14 1.94-0.72 0.12 0.18-0.21 0.43 0.17 0.34-0.03-0.44 1.35-0.85 1.63-0.78 0.21-0.43 0.73-0.8 1.46-1.13 0.17 0.45 0.62 0.37 1.03 0.35-0.05-0.34-0.56-0.28-0.25-0.52 0.88-0.54 0.04 0.73 1.18 0.07-0.05-0.34-0.56-0.28-0.25-0.52 0.76 0.12 0.62-0.37 0.85-0.62-0.1 0.11 0.21 0.11 0.31 0.06 0.35-0.19 1.02-0.8 0.71 0.29 0.83-0.16 0.43-0.54 0.76-0.79 0.67 0.14 1.05-0.46 1.31-0.84 0.12 0.18-0.21 0.43 0.17 0.34-0.11-0.39 0.46-0.64 0.68-0.97 0.12 0.18-0.21 0.43 0.17 0.34 0.33-0.41 0.93-0.76 0.83-1.25 0.14 0.73 0.89 0.29 1.35 0.41-0.44-1.05 1.48-0.68 1.53-1.59 0.56 0.26 1.33 0.1 2.04 0.08 0.28-0.62 1.03-0.97 1.63-0.78-0.55-0.86 0.82 0.1 0.61-0.51-0.28 0.09-0.45-0.02-0.63-0.12q0.46-0.22 0.93-0.45c-0.29 0.92 0.66-0.14 0.93-0.45q0.47 0.11 0.95 0.18c0-0.6 1.01-0.43 1.4-0.67-0.05-0.34-0.56-0.27-0.25-0.52 0.5-0.18 0.42 0.74 1.03 0.35-0.85-0.85 0.9-0.31 0.91-1.08-0.13 0.06-0.33-0.01-0.08-0.17 0.82 0.62 0.51-0.56 1.63-0.78 0.08 0.17-0.09 0.29-0.07 0.46 0.93-0.74 1.01-0.56 1.79-0.44-0.25-0.36-0.26-0.67 0.13-0.91 0.17 0.45 0.62 0.37 1.03 0.35 0.46-0.49 1.07-0.94 1.3-1.47 0.18 0.44-0.18 0.75 0.56 0.58-0.06-0.87 1.23-0.66 2.01-1.18-0.06-0.22-0.28-0.47-0.02-0.63 0.03 0.24 0.96 0.27 0.78-0.16-0.15 0.06-0.29 0.11-0.31-0.06 0.8 0.11 0.64-0.92 1.38-1.3-0.23 0.68 1.18 0.45 1.89 0.36-0.01-0.16-0.16-0.34 0.06-0.46 0.75 0.71 1.09-1 1.94-0.72-0.41-0.48 0.72-0.64-0.1-0.8 0.65-0.26 0.79-1.23 0.7-0.34 0.98-0.59 1.62-1.55 1.99-1.81-0.62-0.01 0.02-0.61-0.8-0.47 0.23-0.32 0.56-0.62 0.68-0.96-0.88 0.69-2.62 1.03-3.14 0.03 0.97 0.1 0.62-0.81 1.63-0.78-0.11-0.54 0.97-0.86 1.38-1.3 0.39 0.03 0.94-0.24 1.33-0.21 0.33-0.63-0.68-0.38-0.96-0.81 0.68-0.39 0.57-0.93 1.69-1.24-0.52-0.42-0.21-0.38-0.5-1.03q0.78-0.32 0.45-0.85c-1.05 0.05-1.44 0.14-2.34 0.49-0.98-0.31-0.84-0.74-1.68-1.1-1.89 0.98-5.99 2.38-7.75 3.52-0.55-0.05-1.26 0.2-2.03 0.55 0.01 0.16 0.16 0.34-0.06 0.46-0.24-0.41-0.81 0.33-0.93 0.45-0.08-0.17 0.09-0.3 0.07-0.46-1.41 0.41-3.59 1.49-5.81 2.8-0.2-0.17-0.47-0.21-0.86 0-1.08 0.46-2.3 1.43-3.49 1.68 0.06 0.22 0.27 0.47 0.02 0.63-0.93-0.12-1.6 0.03-2.26 0.66-0.03-0.24-0.96-0.27-0.78 0.16 0.83-0.34 0.2 0.48 0.71 0.29-0.11-0.23 0.54-0.53 0.7-0.34-0.19 0.23 0.38 0.71-0.6 1.14-1.02 0.25-0.45-1.31-1.68-1.1-0.16 0.57-0.44 0.54-1.08 0.73-0.18 0.33-0.73 0.59-1.31 0.84-0.37-0.27-1.45 0.78-1.79 0.44-0.32 0.15-0.47 0.33-0.61 0.51-0.29-0.15-2.48 0.66-2.01 1.18 0.69-0.56 0.82-0.33 1.54-0.95-0.02 0.26-0.06 0.51-0.22 0.74-0.62-0.28-1.01 0.89-1.56 0.33-0.17 0.28 0.24 0.67-0.45 0.85-0.09-0.45 0.8-0.95 0.05-1.08-1.08 0.51-1.16 1.38-1.21 1.64-0.66 0.15-1.18 0.04-1.73-0.01-0.47 1.04-1.53 1.01-1.91 1.98 0.18-0.31-0.3-0.83-0.73-0.92 0.11 0.4-0.58 1.44-0.83 1.25-0.29-0.42 0.84-0.57 0.36-1.02-0.78 0.39-1.14 0.17-1.31 0.84 0.37-0.16 0.79-0.41 0.86 0-0.63 0.32-0.61-0.06-0.93 0.45q-0.19-0.47-0.56-0.58c-1.88 0.93-2.05 1.27-4.1 2.19-0.45 0.28-0.23 0.68-0.68 0.96-0.06-0.27 0.24-0.48 0.22-0.74-1.38 0.36-2.13 0.73-2.62 1.69-0.13-0.18-0.2-0.51-0.48-0.4 0.01 0.16 0.16 0.34-0.07 0.46-0.75-0.3-1.08 0.22-1.86 0.9-0.89-0.18-2.98 1.05-3.57 1.51 0.27-0.08 0.69 0.01 0.4 0.23-0.5 0.18-0.78-0.05-1.18-0.07 0.36 0.3-0.52 1.12-0.76 0.79-0.14-0.29 0.6-0.41 0.53-0.68-1.01 0.46-1.95 0.46-2.24 1.29-0.08-0.17-0.29-0.11-0.4-0.23-0.38 0.58-1.85 0.48-2.24 1.29 0.54 0.1 0.79-0.69 1.18 0.07-0.43-0.03-0.66 0.09-0.61 0.51 0.27-0.08 0.7 0.02 0.4 0.23-0.52 0.22-0.71-0.19-0.88-0.63-0.41 0.22-0.63 0.09-0.71-0.29-0.32 0.13-1.7 0.78-0.85 0.62 0.29-0.11 0.65-0.35 0.78-0.16 0 0.19-0.27 1.06-0.53 0.68 0.43-0.61-0.17 0.21-0.7 0.34-0.18-0.44 0.18-0.75-0.57-0.58 0.1 0.62 0.37 0.69 0.18 0.97-0.83 0.34-0.21-0.48-0.71-0.29 0.11 0.38-0.46 0.64-0.68 0.96-0.26-0.28-0.71-0.19-0.88-0.64-1.28 0.13-2.49 1.73-3.4 1.85 0.68-0.1 1.15-1 0.45-0.85-0.41 0.47-1.32 0.58-2.24 1.29q-0.09-0.17-0.17-0.35c-0.53 0.49-1.17 0.61-1.94 0.72 0.59 0.58-0.59 0.83-0.51 1.31-0.2-0.28 0.37-1.43-0.1-0.8-0.05 0.6-1.21 0.58-1.63 0.78q0.33 0.54-0.45 0.85c-0.32 0.05-0.62 0.07-0.86 0-0.67 0.41-4.14 2.42-3.82 0.99-1.15 0.36-0.7 1.01-0.98 1.53-0.31-1.61-2.91 1.13-3.9 0.82 0 0.5 1.17 0.35 0.65 0.75-0.45 0.18-0.83 0.26-1.1 0.1-0.12-0.23-0.07-0.43-0.02-0.63-1 0.17-0.22 0.69-1 0.91-0.08-0.17 0.09-0.3 0.07-0.46-0.65 0.47-0.93 0.23-1.48 0.5 0.19 0.45 0.38 0.91-0.28 1.2-0.09-0.22 0.18-0.38-0.02-0.63-0.77 0.08-0.14 1.19-0.76 0.79-0.17-0.5 0.68-0.81 0.83-1.25-1.05 0.17-1.91 0.33-2.32 1.12 0.52-0.4 1.34 0.26 0.88 0.64q-0.13-0.25-0.25-0.52c-0.83 0.31-0.45 0.85-0.83 1.25-0.06-0.99-0.93-0.44-1.13-1.15-1.14 0.65-2.2 1.02-2.08 1.64-0.33 0.07-0.58 0-0.71-0.29-3 1.49-4.21 1.67-6.43 3.31-0.91-0.06-2.67 1.05-2.62 1.69-1.33 0.55-1.77 0.57-2.16 1.46-0.4-0.43-0.91-0.36-1.01 0.28-0.68 0.3-0.76-0.54-1.49-0.13-0.69 0.47-0.16 0.78-0.37 1.03-0.51 0.3-0.89 0.38-1.1 0.1 0.23-0.22 0.44-0.44 0.53-0.68-0.75 0.29-0.92 0.93-1.63 0.78 0.09 0.37 0.48 0.19 0.71 0.29-1.18 0.53 1.01 0.23-0.13 0.91-0.61 0.38-0.53-0.54-1.03-0.35-0.07 0.4 0.45 0.92-0.28 1.2-0.61-0.64 0.51-0.94 0.12-1.54-1.25 0.66-1.4 0.97-2.79 1.34 0.01 0.16 0.16 0.34-0.07 0.46-0.41-0.09-1.09 0.31-1.71 0.61 0.15 0.29 0.03 0.53-0.21 0.74q-0.21-0.59-0.95-0.18c0.35 0.67-1.9 0.73-1.23 1.02q0.34-0.16 0.7-0.34c0.1 0.24 0.29 0.33 0.48 0.4-1-0.04-1.79 0.82-2.34 0.49 0.08 0.28-0.49 0.43-0.85 0.62 0.44 0.5-0.09 0.82-0.6 1.14-0.13-0.19-0.6-0.19-0.25-0.52 0.13 0.2 0.27 0.37 0.63 0.12q-0.13-0.25-0.25-0.52c-0.67 0.61-1.27 0.5-1.55 0.96 0.24-0.11 0.44 0.16 0.17 0.35 0.03-0.36-0.82-0.53-0.63-0.12 0.29-0.1 0.38 0.15 0.48 0.41-0.7-0.09-0.24 0.17-0.61 0.51-0.82 0.12-1.47-0.07-2.42 0.32 0.51 0.38 0.45 0.57-0.05 1.09-0.12-0.44-0.36-0.65-0.65-0.75 0.27-0.16 0.53-0.32 0.3-0.57-0.92 0.29-0.05 0.93-0.51 1.31-0.45-0.14-1.25 0.03-1.56 0.33q0.3-0.09 0.4 0.23c-0.46 0.17-0.42 0.44-0.85 0.62-0.47-1.31-1.59 1.46-2.34 0.49-0.73 0.32-0.75 1.11-1.54 0.96 0.25 0.41-0.1 0.71-0.37 1.03-0.48-0.42-0.52 0.5-0.85 0.62-0.69-0.46-1.15 0.64-2.03 0.55 0 0.26-0.13 0.5-0.53 0.68-0.34-0.35-1.06 0.04-1.64 0.15 0.33 0.64 0.1 1.17-0.35 1.65-0.71 0.46-1.19 0.51-1.56 0.33-0.15 0.17-0.85 0.68-1.4 0.67 0.47 0.45-0.1 0.71-0.36 1.02-0.59 0.03-0.99-0.32-1.73-0.02q-0.38 0.55-0.6 1.14c-1.91 0.88-2.01 0.85-3.27 0.94-0.42 2.1-3.21 1.99-5.08 3.72-0.08-0.17 0.09-0.29 0.07-0.46-1.12 0.71-1.72 0.68-2.39 1.58-0.53 0.02-1.02-0.04-1.64 0.16 0.16 0.29 0.03 0.53-0.21 0.74-1.23 0.18-2.39 1.99-3.8 1.62-0.4 0.5 0.5 0.28 0.02 0.63-0.19-0.2-0.49-0.17-0.56-0.58-0.7 0.9-1.96 1.46-2.14 2.09-0.35 0.12-0.53-0.09-0.86 0 0.01 0.16 0.16 0.34-0.07 0.46-1.7 0.95-2.72 0.78-3.4 1.85-0.2-0.17-0.47-0.21-0.86 0-0.27 0.52-1.3 0.9-1.61 1.41-0.54-0.54-1.53 0.76-1.69 1.24-0.12-0.11-0.17-0.33-0.4-0.23q-0.02 0.46-0.45 0.85c-1.4 0.49-2.29 1.04-3.24 2.2-1.08-0.42-1.4 0.84-2.72 0.89 0.1 0.7-1.22 1.23-1.93 1.35-0.69 0.58-1.66 1.28-2.47 1.4-0.58 0.62-1.79 1.12-2.31 1.75-0.66-0.58-1.09 0.72-1.78 1.07-0.34-0.01-0.73 0.07-1.25 0.39-0.34 0.96-2.05 1.78-3.02 1.46 0.11 0.49-0.86 0.77-0.83 1.25-0.84-0.15-2.15 0.63-2.47 1.4-0.55-0.11-1.53 0.5-1.55 0.95 0.29-0.1 0.65-0.35 0.78-0.16 0.05 0.22-0.13 0.39-0.3 0.57 0.27-0.62-0.15-0.16-0.48-0.41-0.91 0.35-0.56 0.94-1.06 1.36-0.3-0.15-1.02 0.94-1.38 1.3-0.15-0.21 0.69-0.97-0.1-0.8 0.09 0.33-0.21 0.58-0.76 0.79 0.06 0.22 0.27 0.47 0.02 0.63-1.07 1.03-1.42 1.58-2.92 2.26 0.11 0.38-0.46 0.64-0.68 0.96-0.12-0.11-0.29-0.11-0.55 0.05-0.1 0.55-0.42 1.07-1.3 1.47 0.08 0.22 0.13 0.44-0.3 0.57 0.42 0.45 0.07 0.74 0.27 1.15 0.98-0.91 3.56-1.51 3.62-2.59 0.21 0.2 0.42 0.16 0.25 0.52 1.25-0.7 3.24-1.26 3.55-2.14 0.61 0.34 1.12-0.32 1.63-0.78 0.46-0.22 0.52 0.33 1.1-0.1-0.08-0.86 1.84-1.44 2.16-1.46 0.44 0.94-0.74 0.76-1.06 1.36 0.13-0.06 0.33 0.01 0.08 0.17-0.94 0.34-0.99 0.85-2.01 1.18 0.11 0.28 0.32 0.58-0.22 0.74-0.12-0.23-0.07-0.43-0.01-0.63-1.02 0.48-1.85 1-2.08 1.63-2.84 1.78-4.41 2.11-6.33 4.11 2.63-0.97 4.08-2.02 6.59-2.97-0.25-0.41 0.1-0.71 0.36-1.02q0.12 0.25 0.25 0.52c1.06-0.27 0.73-0.8 1.46-1.13 0.06 0.31 0.54 0.31 0.55-0.05-0.13 0.06-0.33-0.01-0.08-0.17 0.97-0.09 2.17-0.51 2.24-1.29zm84.44-56.6c-0.26 0.16-0.43 0.16-0.55 0.05 0.26-0.16 0.43-0.16 0.55-0.05zm0 0c1.11 0.11-0.43 0.92 0 0zm96.23-31.51c-0.08 0.14-0.36 0.02-0.31-0.06 0.08-0.15 0.36-0.02 0.31 0.06zm-52.81 20.57c0.55-0.78 1.74-1.44 2.37-2.21 0.43 0.62 1.61-0.21 2.28-0.03 0.25-0.68 1.18-1.23 2.31-1.75q0.16 0.34 0.33 0.69c0.31-0.95 1.23-0.99 2.08-1.63 0.37-0.25 0.5-0.08 0.63 0.12 0.27-0.99 2.02-0.69 2.31-1.75 0.45-0.08 0.34 0.33-0.07 0.46 0.8 0.24 1.31-0.89 2.01-1.18q0.74-0.42 0.94 0.18c0.31-0.61 0.76-0.34 1.25-0.39-0.35-0.54 0.37-0.95 1.46-1.13 0.22 0.36-0.79 0.47-1.08 0.73 0.92 0.02 2.44-1.12 3.42-1.22 0.18 0.61-0.9 0.66-1.31 0.84-0.39 0.17-0.31 0.37-0.61 0.51-1.87 0.89-4.32 1.86-6.91 2.9-0.55 0.21-0.85 0.46-0.76 0.79-0.39 0.07-0.71 0.03-1.1 0.1-1.39 1.02-3.65 2.83-5.96 3.08-0.28 0.21-0.22 0.48-0.53 0.68-0.57 0.43-0.63-0.12-1.1 0.1-0.17 0.44-1.29 0.69-1.46 1.13-0.84 0.37-2.83 0.58-2.79 1.34-0.4-0.02-0.58-0.44-1.03-0.36-0.42-0.55 0.62-0.82 0.2-1.37 0.29-0.26 1.3-0.38 1.08-0.73 0.28-0.09 0.21 0.11 0.08 0.17 0.36-0.12 1.49-0.65 1.96-0.09zm-47.71 24.04c0.31-0.1 0.4 0.23 0.17 0.35-0.37 0.09-0.05-0.16-0.17-0.35zm-30.7 17.13c-1.12 0.26-1.56 0.72-2.41 0.95-0.54-1.09 1.93-1.66 2.41-0.95zm-38.52 21.1c1.01-0.53 0.39 0.65 0 0zm-3.87 2.08c-0.07-0.17 0.22-0.27 0.38-0.4 0.07 0.17-0.22 0.27-0.38 0.4zm-3.72 1.79c0.16 0.03-0.06 0.3-0.15 0.28-0.16-0.03 0.06-0.3 0.15-0.28zm-6.83 3.08c0.05 0.22-0.19 0.21-0.23 0.11-0.05-0.22 0.19-0.21 0.23-0.11zm13.41-6.67c0.16 0.03-0.06 0.3-0.15 0.29-0.16-0.03 0.06-0.3 0.15-0.29zm6.89-3.53c0.16 0.03-0.06 0.3-0.15 0.28-0.16-0.03 0.06-0.3 0.15-0.28zm-10.7 5.15c0.16 0.03-0.06 0.3-0.15 0.28-0.16-0.03 0.06-0.3 0.15-0.28zm8.29-4.2c0.16 0.03-0.06 0.3-0.15 0.28-0.16-0.03 0.06-0.3 0.15-0.28zm-13.9 5.63c0.8-0.27 1.02-0.64 1.54-0.96 0.45 0.58-1.22 1.89-1.54 0.96zm8.85-3.63c0.27 0.13 0.42 0.26 0.08 0.17-0.33-0.09-0.38-0.32-0.08-0.17zm-9.45 4.77c0.16 0.03-0.06 0.3-0.15 0.28-0.16-0.03 0.06-0.3 0.15-0.28zm4.95-2.81c0.16 0.03-0.06 0.3-0.15 0.28-0.16-0.03 0.06-0.3 0.15-0.28zm-3 2.08c0.16 0.03-0.06 0.3-0.15 0.28-0.16-0.03 0.06-0.3 0.15-0.28zm36.62-18.49c-0.8 0.17 0.04-0.59 0.22-0.74 0.8-0.17-0.59 0.48-0.22 0.74zm0.15-0.29q0.23-0.11 0.46-0.22 0.08 0.17 0.17 0.34-0.23 0.11-0.46 0.22-0.09-0.18-0.17-0.34zm-6.19 3.2c0.16 0.03-0.06 0.3-0.15 0.28-0.16-0.03 0.06-0.3 0.15-0.28zm-29.52 14.22c0.05 0.24-0.38 0.4-0.47 0.22 0.16-0.21 0.31-0.41 0.47-0.22zm180.15-86.79q-0.23 0.11-0.46 0.22-0.09-0.18-0.17-0.34 0.23-0.11 0.46-0.22 0.08 0.17 0.17 0.34zm-179.07 86.06c0.06 0.22-0.35 0.35-0.62 0.51-0.06-0.22 0.36-0.35 0.62-0.51zm185.42-89.55c0.08 0.17-0.22 0.27-0.38 0.4-0.08-0.17 0.22-0.27 0.38-0.4zm-1.63 0.79c0.16 0.03-0.06 0.3-0.15 0.28-0.16-0.03 0.06-0.3 0.15-0.28zm-6.97 3.36c0.07 0.17-0.22 0.27-0.38 0.4-0.07-0.17 0.22-0.27 0.38-0.4zm-0.7 0.33c0.16 0.03-0.06 0.3-0.15 0.28-0.16-0.03 0.06-0.3 0.15-0.28zm-137.62 66.31c0.04 0.24-0.38 0.4-0.47 0.23-0.02-0.3 0.21-0.08 0.47-0.23zm126.61-61.21c0.16 0.03-0.06 0.3-0.15 0.28-0.16-0.03 0.06-0.3 0.15-0.28zm-149.94 72.23c0.16 0.03-0.06 0.3-0.15 0.28-0.16-0.03 0.06-0.3 0.15-0.28zm170.55-82.38c0.16 0.03-0.06 0.3-0.15 0.28-0.16-0.03 0.06-0.3 0.15-0.28zm-13.95 6.73c0.16 0.03-0.06 0.3-0.15 0.28-0.16-0.03 0.06-0.3 0.15-0.28zm-8.37 4.03c0.16 0.03-0.06 0.3-0.15 0.28-0.16-0.03 0.06-0.3 0.15-0.28zm-14.41 6.94c0.16 0.03-0.06 0.3-0.15 0.28-0.16-0.03 0.06-0.3 0.15-0.28zm-105.31 50.74c0.07 0.17-0.22 0.27-0.38 0.4-0.07-0.17 0.22-0.27 0.38-0.4zm-46.02 22.17c0.16 0.03-0.06 0.3-0.15 0.28-0.16-0.03 0.06-0.3 0.15-0.28zm165.19-79.8c0.16 0.03-0.06 0.3-0.15 0.28-0.16-0.03 0.06-0.3 0.15-0.28zm-11.39 5.49c0.16 0.03-0.06 0.3-0.15 0.28-0.16-0.03 0.06-0.3 0.15-0.28zm-98.71 47.77c-0.32 0.06-0.58 0-0.71-0.29q0.35-0.16 0.7-0.34c-0.06 0.2-0.11 0.4 0.01 0.63zm-8.22 3.75c0.16 0.03-0.06 0.3-0.15 0.28-0.16-0.03 0.06-0.3 0.15-0.28zm142.96-68.88c-0.27 0.08-0.32-0.27-0.63-0.12-0.13-0.53 0.73-0.36 0.63 0.12zm-50.29 24.02c0.07 0.17-0.22 0.27-0.38 0.4-0.07-0.17 0.22-0.27 0.38-0.4zm-88.1 42.44c0.16 0.03-0.06 0.3-0.15 0.28-0.16-0.03 0.06-0.3 0.15-0.28zm-18.6 8.96c0.16 0.03-0.06 0.3-0.15 0.28-0.16-0.03 0.06-0.3 0.15-0.28zm98.25-47.54c0.06 0.22-0.35 0.35-0.61 0.51-0.06-0.22 0.35-0.35 0.61-0.51zm-2.1 1c0.16 0.03-0.06 0.3-0.15 0.28-0.16-0.03 0.06-0.3 0.15-0.28zm-79.26 38.2c0.16 0.03-0.06 0.3-0.15 0.28-0.16-0.03 0.06-0.3 0.15-0.28zm140.78-68.05c0.16 0.03-0.06 0.3-0.15 0.28-0.16-0.03 0.06-0.3 0.15-0.28zm-14.41 6.95c0.16 0.03-0.06 0.3-0.15 0.28-0.16-0.03 0.06-0.3 0.15-0.28zm-33.47 16.12c0.25 0.29-0.94 0.76-0.78 0.16q0.23-0.11 0.46-0.22c0.03 0.17 0.17 0.12 0.32 0.06zm-84.62 40.77c0.07 0.17-0.22 0.27-0.38 0.4-0.07-0.17 0.22-0.27 0.38-0.4zm-0.7 0.34c0.16 0.03-0.06 0.3-0.15 0.28-0.16-0.03 0.06-0.3 0.15-0.28zm4.11-2.19c0.07 0.17-0.22 0.27-0.38 0.4-0.07-0.17 0.22-0.27 0.38-0.4zm-6.51 3.13c0.16 0.03-0.06 0.3-0.15 0.28-0.16-0.03 0.06-0.3 0.15-0.28zm81.97-39.7c0.16 0.03-0.06 0.3-0.15 0.28-0.16-0.03 0.06-0.3 0.15-0.28zm-13.02 6.27c0.16 0.03-0.06 0.3-0.15 0.28-0.16-0.03 0.06-0.3 0.15-0.28zm-8.88 2.37c-0.48 0.14-0.66-0.29-1.33 0.22-0.92-1.2 1.34-1.44 2.16-1.47 0.22-0.11 0.08-0.3 0.07-0.46 1.5-0.37 1.62-0.91 2.62-1.69 0.17 0.81 0.78-0.66 1.18 0.07 0.46-0.22 0.07-0.61 0.76-0.79 0.8-0.42 1.04 0.21 1.73 0.02-0.32 0.65 0.02 0.56-0.05 1.08-0.74 0.38-1.71 0.49-2.96 1-0.02-0.16 0.15-0.28 0.07-0.46-0.03 0.8-1.91 0.88-3.17 1.74 0.04-0.03-0.52 0.65-0.78 0.17-0.43 0.13-0.37 0.34-0.3 0.57zm-55.27 28.54c0.16 0.03-0.06 0.3-0.15 0.29-0.16-0.03 0.06-0.3 0.15-0.29zm-5.35 2.58c0.07 0.17-0.22 0.27-0.38 0.4-0.07-0.17 0.22-0.27 0.38-0.4zm66.63-32.32c0.05 0.24-0.38 0.4-0.46 0.22 0.16-0.2 0.32-0.41 0.46-0.22zm-3.72 1.79c0.06 0.22-0.35 0.35-0.61 0.51-0.06-0.22 0.35-0.35 0.61-0.51zm-60.2 29.01c0.16 0.03-0.06 0.3-0.15 0.28-0.16-0.03 0.06-0.3 0.15-0.28zm-1.63 0.78c0.16 0.03-0.06 0.3-0.15 0.29-0.16-0.03 0.06-0.3 0.15-0.29zm133.81-64.68c0.05 0.22-0.19 0.21-0.23 0.11-0.05-0.22 0.19-0.21 0.23-0.11zm-0.7 0.34c0.16 0.03-0.06 0.3-0.15 0.28-0.16-0.03 0.06-0.3 0.15-0.28zm-47.42 22.84c0.16 0.03-0.06 0.3-0.15 0.28-0.16-0.03 0.06-0.3 0.15-0.28zm-26.27 12.66c0.16 0.03-0.06 0.3-0.15 0.28-0.16-0.03 0.06-0.3 0.15-0.28zm-44.08 21.45c-0.27 0.08-0.32-0.26-0.63-0.12-0.03-0.22 0.4-0.34 0.3-0.57 0.33-0.09 0.51 0.12 0.86 0 0.22 0.63-0.64 0.29-0.53 0.69zm82.36-40.1c0.05 0.22-0.19 0.21-0.23 0.11-0.05-0.22 0.19-0.21 0.23-0.11zm-72.06 34.72c0.16 0.03-0.06 0.3-0.15 0.28-0.16-0.03 0.06-0.3 0.15-0.28zm-3.49 1.68c0.16 0.03-0.06 0.3-0.15 0.28-0.16-0.03 0.06-0.3 0.15-0.28zm-12.32 5.94c0.05 0.22-0.19 0.21-0.23 0.11-0.05-0.22 0.19-0.21 0.23-0.11zm121.49-58.75c0.16 0.03-0.06 0.3-0.15 0.28-0.16-0.03 0.06-0.3 0.15-0.28zm-81.82 39.42c0.16 0.03-0.06 0.3-0.15 0.28-0.16-0.03 0.06-0.3 0.15-0.28zm-8.14 3.92c0.16 0.03-0.06 0.3-0.15 0.28-0.16-0.03 0.06-0.3 0.15-0.28zm-1.86 0.9c0.07 0.17-0.22 0.27-0.38 0.4-0.08-0.17 0.22-0.27 0.38-0.4zm-9.3 4.48c0.05 0.22-0.19 0.21-0.23 0.11-0.05-0.22 0.19-0.21 0.23-0.11zm102.67-49.68c0.16 0.03-0.06 0.3-0.15 0.28-0.16-0.03 0.06-0.3 0.15-0.28zm-67.42 32.48c0.16 0.03-0.06 0.3-0.15 0.28-0.16-0.03 0.06-0.3 0.15-0.28zm-36.26 17.47c0.16 0.03-0.06 0.3-0.15 0.28-0.16-0.03 0.06-0.3 0.15-0.28zm-1.86 0.9c0.05 0.21-0.19 0.21-0.23 0.11-0.05-0.22 0.19-0.21 0.23-0.11zm-0.46 0.22c0.16 0.03-0.06 0.3-0.15 0.28-0.16-0.03 0.06-0.3 0.15-0.28zm-10.47 5.04c0.16 0.03-0.06 0.3-0.15 0.28-0.16-0.03 0.06-0.3 0.15-0.28zm-0.46 0.23c0.02 0.3-0.21 0.08-0.46 0.22-0.05-0.25 0.38-0.4 0.46-0.22zm60.34-26.95q-0.09-0.18-0.17-0.34 0.23-0.11 0.47-0.22 0.08 0.18 0.17 0.34-0.24 0.12-0.47 0.22zm-45.55 19.61c0.05 0.22-0.19 0.21-0.23 0.11-0.05-0.22 0.19-0.21 0.23-0.11zm23.86-11.71c0.16 0.03-0.06 0.3-0.15 0.29-0.16-0.03 0.06-0.3 0.15-0.29zm-5.11 2.46c0.16 0.03-0.06 0.3-0.15 0.29-0.16-0.03 0.06-0.3 0.15-0.29zm-2.56 1.23c0.16 0.03-0.06 0.3-0.15 0.29-0.16-0.03 0.06-0.3 0.15-0.29zm-5.34 2.58c0.05 0.24-0.38 0.4-0.46 0.22 0.16-0.2 0.32-0.41 0.46-0.22zm-2.33 1.12c0.16 0.03-0.06 0.3-0.15 0.29-0.16-0.03 0.06-0.3 0.15-0.29zm-1.39 0.67c0.16 0.03-0.06 0.3-0.15 0.29-0.16-0.03 0.06-0.3 0.15-0.29zm-1.63 0.78c-0.29 0.3-0.23-0.02-0.08-0.17 0.26-0.26 0.58-0.14 0.32 0.06-0.06 0.05-0.18 0.06-0.24 0.11zm-1.16 0.57c0.69 0.35-1.45-0.4 0 0zm29.87-12.91c0.16 0.03-0.06 0.3-0.15 0.28-0.16-0.03 0.06-0.3 0.15-0.28zm-4.85 0.64c0.16 0.03-0.06 0.3-0.15 0.28-0.16-0.03 0.06-0.3 0.15-0.28zm-5.11 2.46c0.22-0.53-0.13-0.21-0.33-0.69 0.55-0.21 0.85-0.46 0.76-0.79 0.28-0.09 0.21 0.11 0.08 0.17 0.49 0.34 1.6-0.5 2.09-1.01 0.62-0.25-0.18 0.45 0.33 0.69-0.23 0.11-0.28-0.12-0.4-0.23-0.52 0.46-1.41 1.05-1.94 0.72-0.52 0.32 0.25 0.88-0.59 1.14zm-7.59 3.87c-0.6 0.12-0.74-0.96 0.05-1.08 0.43 0.45-0.48 0.64-0.05 1.08zm-4.74 2.07c-0.03 0.4-0.3 0.02-0.4-0.23 0.03-0.4 0.3-0.02 0.4 0.23zm-11.39 5.48c0.07 0.17-0.22 0.27-0.38 0.4-0.07-0.17 0.22-0.27 0.38-0.4zm-31.61 15.24c0.16 0.03-0.06 0.3-0.15 0.28-0.16-0.03 0.06-0.3 0.15-0.28zm57.88-27.89c0.16 0.03-0.06 0.3-0.15 0.28-0.16-0.03 0.06-0.3 0.15-0.28zm-9.69 4.25c-0.65-0.59 1.71-0.46 1.69-1.24 0.23 0 0.46 0 0.78-0.16 0.72-0.34 1.4-1.3 1.79-0.44-1.54 0.75-2.57 1.53-4.26 1.84zm-4.11 2.18c-0.44 0.61-0.09-0.82 0.68-0.96 0.33 0.43-0.79 0.58-0.68 0.96zm-5.74 2.35c0.14 0.18 0.49-0.06 0.78-0.17 0.52 0.02-0.77 0.9-1.31 0.84-0.26-0.36 0.58-0.51 0.45-0.85-0.99 0.05 0.86-0.32 0.08 0.17zm-2.39 1.57c0.16 0.03-0.06 0.3-0.15 0.28-0.16-0.03 0.06-0.3 0.15-0.28zm-44.87 21.62c0.16 0.03-0.06 0.3-0.15 0.28-0.16-0.03 0.06-0.3 0.15-0.28zm44.93-22.07c0.16 0.03-0.06 0.3-0.15 0.28-0.16-0.03 0.06-0.3 0.15-0.28zm18.05-8.91c0.16 0.03-0.06 0.3-0.15 0.28-0.16-0.03 0.06-0.3 0.15-0.28zm-10.92 5.26c0.05 0.22-0.19 0.21-0.23 0.11-0.05-0.22 0.19-0.21 0.23-0.11zm-6.05 2.92c0.16 0.03-0.06 0.3-0.15 0.28-0.16-0.03 0.06-0.3 0.15-0.28zm9.22-4.66c0.16 0.03-0.06 0.3-0.15 0.28-0.16-0.03 0.06-0.3 0.15-0.28zm-105.77 50.96c0.17 0.03-0.06 0.3-0.15 0.28-0.16-0.03 0.06-0.3 0.15-0.28zm193.79-93.58c0.04 0.27-0.51 0.42-0.85 0.62-0.13-0.43 0.43-0.7 0.85-0.62zm-84.15 40.55c0.08 0.17-0.22 0.27-0.38 0.4-0.07-0.17 0.22-0.27 0.38-0.4zm-5.81 2.8c0.08 0.17-0.22 0.27-0.38 0.4-0.07-0.17 0.22-0.27 0.38-0.4zm-4.19 2.01c0.05 0.24-0.38 0.4-0.47 0.22-0.02-0.3 0.21-0.08 0.47-0.22zm-100.42 48.39c0.16 0.03-0.06 0.3-0.15 0.28-0.16-0.03 0.06-0.3 0.15-0.28zm101.04-48.89c0.89 0.22-0.93-0.13 0 0zm-2.1 1c0.07 0.17-0.22 0.27-0.38 0.4-0.08-0.17 0.22-0.27 0.38-0.4zm-96 46.26c0 0 0.1 0.16 0.08 0.17-0.78 0.51-0.39-0.76-0.02-0.63-0.02 0-0.05 0.43-0.06 0.46zm65.62-32.04c0.16 0.03-0.06 0.3-0.15 0.28-0.16-0.03 0.06-0.3 0.15-0.28zm-66.72 32.14c0.16 0.03-0.06 0.3-0.15 0.29-0.16-0.03 0.06-0.3 0.15-0.29zm98.4-47.83c0.05 0.24-0.38 0.39-0.46 0.22 0.16-0.21 0.32-0.41 0.46-0.22zm12.47-6.22c0.16 0.03-0.06 0.3-0.15 0.28-0.16-0.03 0.06-0.3 0.15-0.28zm-19.99 9.63c0.16 0.03-0.06 0.3-0.15 0.28-0.16-0.03 0.06-0.3 0.15-0.28zm5.26-2.75c0.05 0.22-0.19 0.21-0.23 0.11-0.05-0.22 0.19-0.21 0.23-0.11zm99.64-48.22c0.05 0.22-0.19 0.21-0.23 0.11-0.05-0.22 0.19-0.21 0.23-0.11zm-112.36 53.93c0.6 0.06 0.29-0.16 0.93-0.45 0.61 0.34-1.04 1.14-0.93 0.45zm3.02-1.46c0.16 0.03-0.06 0.3-0.15 0.28-0.16-0.03 0.06-0.3 0.15-0.28zm-28.67 13.6c0.16 0.03-0.06 0.3-0.15 0.28-0.16-0.03 0.06-0.3 0.15-0.28zm136.6-66.02c0.16 0.03-0.06 0.3-0.15 0.28-0.16-0.03 0.06-0.3 0.15-0.28zm-164.28 78.72c0.16 0.03-0.06 0.3-0.15 0.28-0.16-0.03 0.06-0.3 0.15-0.28zm111.96-54.15c0.16 0.03-0.06 0.3-0.15 0.28-0.16-0.03 0.06-0.3 0.15-0.28zm-19.99 9.63c0.16 0.03-0.06 0.3-0.15 0.28-0.16-0.03 0.06-0.3 0.15-0.28zm31.92-15.8c-0.19-0.45 0.61-0.72 1.23-1.02 0.76-1.02 1.73-0.85 2.54-1.86 0.7-0.33 1.01 0.07 1.64-0.16-0.52 0.57-1.1 0.5-1.38 1.3-2.06 0.52-1.98 1.42-4.03 1.73zm-98.48 47.66c0.16 0.03-0.06 0.3-0.15 0.28-0.16-0.03 0.06-0.3 0.15-0.28zm-18.22 8.56c0.07 0.17-0.22 0.27-0.38 0.4-0.07-0.17 0.22-0.27 0.38-0.4zm128.93-62.33c0.05 0.22-0.19 0.21-0.23 0.11-0.05-0.22 0.19-0.21 0.23-0.11zm-6.12 2.74c0.16 0.03-0.06 0.3-0.15 0.28-0.16-0.03 0.06-0.3 0.15-0.28zm-0.17-0.34c0.07 0.17-0.22 0.27-0.38 0.4-0.07-0.17 0.22-0.27 0.38-0.4zm-129.25 62.27c0.16 0.03-0.06 0.3-0.15 0.28-0.16-0.03 0.06-0.3 0.15-0.28zm111.5-53.93c0.16 0.03-0.06 0.3-0.15 0.28-0.16-0.03 0.06-0.3 0.15-0.28zm-3.25 1.57c0.16 0.03-0.06 0.3-0.15 0.28-0.16-0.03 0.06-0.3 0.15-0.28zm-3.26 1.56c0.16 0.03-0.06 0.3-0.15 0.28-0.16-0.03 0.06-0.3 0.15-0.28zm-98.79 47.6c0.05 0.22-0.19 0.21-0.23 0.11-0.05-0.22 0.19-0.21 0.23-0.11zm97.78-47.32c0.16 0.03-0.06 0.3-0.15 0.28-0.16-0.03 0.06-0.3 0.15-0.28zm-94.15 45.36c0.07 0.17-0.22 0.27-0.38 0.4-0.07-0.17 0.22-0.27 0.38-0.4zm113.82-55.05c0.16 0.03-0.06 0.3-0.15 0.29-0.16-0.03 0.06-0.3 0.15-0.29zm-26.73 12.88c0.16 0.03-0.06 0.3-0.15 0.28-0.16-0.03 0.06-0.3 0.15-0.28zm25.49-12.5c0.16 0.03-0.06 0.3-0.15 0.28-0.16-0.03 0.06-0.3 0.15-0.28zm-7.67 3.7c0.05 0.22-0.19 0.21-0.23 0.11-0.05-0.22 0.19-0.21 0.23-0.11zm-3.03 1.46c0.16 0.03-0.06 0.3-0.15 0.28-0.16-0.03 0.06-0.3 0.15-0.28zm-60.9 29.34c0.16 0.03-0.06 0.3-0.15 0.28-0.16-0.03 0.06-0.3 0.15-0.28zm-13.71 6.61c0.17 0.03-0.06 0.3-0.15 0.28-0.16-0.03 0.06-0.3 0.15-0.28zm-2.1 1.01c0.16 0.03-0.06 0.3-0.15 0.28-0.16-0.03 0.06-0.3 0.15-0.28zm-0.93 0.44c0.07 0.17-0.22 0.27-0.38 0.4-0.07-0.17 0.22-0.27 0.38-0.4zm88.72-42.95c0.16 0.03-0.06 0.3-0.15 0.28-0.16-0.03 0.06-0.3 0.15-0.28zm-13.71 6.61c0.07 0.17-0.22 0.27-0.38 0.4-0.08-0.17 0.22-0.27 0.38-0.4zm-53.24 25.64c0.16 0.03-0.06 0.3-0.15 0.28-0.16-0.03 0.06-0.3 0.15-0.28zm56.87-27.61c0.16 0.03-0.06 0.3-0.15 0.28-0.16-0.03 0.06-0.3 0.15-0.28zm-10.46 5.04c0.16 0.03-0.06 0.3-0.15 0.28-0.16-0.03 0.06-0.3 0.15-0.28zm-65.78 31.7c0.16 0.03-0.06 0.3-0.15 0.28-0.16-0.03 0.06-0.3 0.15-0.28zm86.7-41.78q-0.23 0.11-0.46 0.22-0.09-0.18-0.17-0.34 0.23-0.11 0.46-0.22 0.08 0.18 0.17 0.34zm-5.81 2.8c-0.35 0.23-0.48 0.03-0.78 0.16-0.03-0.21 0.41-0.34 0.3-0.57 0.29-0.1 0.35 0.22 0.48 0.41zm-40.99 19.54c0.16 0.03-0.06 0.3-0.15 0.28-0.16-0.03 0.06-0.3 0.15-0.28zm-18.83 9.07c0.16 0.03-0.06 0.3-0.15 0.29-0.16-0.03 0.06-0.3 0.15-0.29zm86.85-42.06c0.16 0.03-0.06 0.3-0.15 0.28-0.16-0.03 0.06-0.3 0.15-0.28zm-16.73 8.07c0.05 0.22-0.19 0.21-0.23 0.11-0.05-0.22 0.19-0.21 0.23-0.11zm-51.84 24.97c0.16 0.03-0.06 0.3-0.15 0.28-0.16-0.03 0.06-0.3 0.15-0.28zm-39.75 19.16c0.05 0.22-0.19 0.21-0.23 0.11-0.05-0.22 0.19-0.21 0.23-0.11zm114.52-55.39c0.07 0.17-0.22 0.27-0.38 0.4-0.07-0.17 0.22-0.27 0.38-0.4zm-1.86 0.89c0.16 0.03-0.06 0.3-0.15 0.28-0.16-0.03 0.06-0.3 0.15-0.28zm-18.37 8.85c0.16 0.03-0.06 0.3-0.15 0.29-0.16-0.03 0.06-0.3 0.15-0.29zm-35.56 17.14c0.17 0.03-0.06 0.3-0.15 0.28-0.16-0.03 0.06-0.3 0.15-0.28zm-42.55 20.49c0.17 0.03-0.06 0.3-0.15 0.28-0.16-0.03 0.06-0.3 0.15-0.28zm84.77-41.05c0.16 0.03-0.06 0.3-0.15 0.28-0.16-0.03 0.06-0.3 0.15-0.28zm-2.32 1.12c0.16 0.03-0.06 0.3-0.15 0.28-0.16-0.03 0.06-0.3 0.15-0.28zm-16.04 7.73c0.16 0.03-0.06 0.3-0.15 0.28-0.16-0.03 0.06-0.3 0.15-0.28zm-11.63 5.6c0.16 0.03-0.06 0.3-0.15 0.28-0.16-0.03 0.06-0.3 0.15-0.28zm-54.16 26.09c0.16 0.03-0.06 0.3-0.15 0.28-0.16-0.03 0.06-0.3 0.15-0.28zm-12.32 5.94c0.16 0.03-0.06 0.3-0.15 0.28-0.16-0.03 0.06-0.3 0.15-0.28zm95.69-46.31c0.16 0.03-0.06 0.3-0.15 0.28-0.16-0.03 0.06-0.3 0.15-0.28zm-2.09 1c0.16 0.03-0.06 0.3-0.15 0.28-0.16-0.03 0.06-0.3 0.15-0.28zm-0.7 0.34c0.16 0.03-0.06 0.3-0.15 0.28-0.16-0.03 0.06-0.3 0.15-0.28zm-25.1 12.1c0.05 0.22-0.19 0.21-0.23 0.11-0.05-0.22 0.19-0.21 0.23-0.11zm-3.26 1.56c0.16 0.03-0.06 0.3-0.15 0.28-0.16-0.03 0.06-0.3 0.15-0.28zm-32.77 15.79c0.05 0.22-0.19 0.21-0.23 0.11-0.05-0.22 0.19-0.21 0.23-0.11zm46.17-22.45c0.16 0.03-0.06 0.3-0.15 0.28-0.16-0.03 0.06-0.3 0.15-0.28zm-6.74 3.24c0.07 0.17-0.22 0.27-0.38 0.4-0.07-0.17 0.22-0.27 0.38-0.4zm-51.37 24.75c0.16 0.03-0.06 0.3-0.15 0.28-0.16-0.03 0.06-0.3 0.15-0.28zm58.96-28.61c0.16 0.03-0.06 0.3-0.15 0.28-0.16-0.03 0.06-0.3 0.15-0.28zm-4.19 2.01c0.16 0.03-0.06 0.3-0.15 0.28-0.16-0.03 0.06-0.3 0.15-0.28zm-1.86 0.9c0.16 0.03-0.06 0.3-0.15 0.28-0.16-0.03 0.06-0.3 0.15-0.28zm-0.46 0.22c0.16 0.03-0.06 0.3-0.15 0.28-0.16-0.03 0.06-0.3 0.15-0.28zm-6.74 3.25c1.08-0.05-0.66 0.22-0.55 0.05 0.17-0.26 0.49-0.05 0.55-0.05zm-3.95 1.9c0.16 0.03-0.06 0.3-0.15 0.28-0.16-0.03 0.06-0.3 0.15-0.28zm-48.82 23.52c0.16 0.03-0.06 0.3-0.15 0.28-0.16-0.03 0.06-0.3 0.15-0.28zm56.17-27.27c0.16 0.03-0.06 0.3-0.15 0.28-0.16-0.03 0.06-0.3 0.15-0.28zm-12.55 6.05c0.16 0.03-0.06 0.3-0.15 0.28-0.16-0.03 0.06-0.3 0.15-0.28zm-0.7 0.33c0.02 0.3-0.21 0.08-0.46 0.22-0.05-0.25 0.38-0.4 0.46-0.22zm-1.63 0.79c0.16 0.03-0.06 0.3-0.15 0.28-0.16-0.03 0.06-0.3 0.15-0.28zm-2.09 1c0.16 0.03-0.06 0.3-0.15 0.28-0.16-0.03 0.06-0.3 0.15-0.28zm-17.9 8.63c0.16 0.03-0.06 0.3-0.15 0.29-0.16-0.03 0.06-0.3 0.15-0.29zm16.97-8.18q-0.23 0.11-0.46 0.22-0.09-0.18-0.17-0.34 0.24-0.11 0.46-0.22 0.08 0.17 0.17 0.34zm-2.64 1.06c0.05 0.22-0.19 0.21-0.23 0.11-0.05-0.22 0.19-0.21 0.23-0.11zm-2.55 1.23c0.05 0.22-0.19 0.21-0.23 0.11-0.05-0.22 0.19-0.21 0.23-0.11zm-43.94 21.17c0.16 0.03-0.06 0.3-0.15 0.28-0.16-0.03 0.06-0.3 0.15-0.28zm-5.58 2.69c0.16 0.03-0.06 0.3-0.15 0.28-0.16-0.03 0.06-0.3 0.15-0.28zm16.19-8.01c0.16 0.03-0.06 0.3-0.15 0.28-0.16-0.03 0.06-0.3 0.15-0.28zm-2.79 1.34c0.16 0.03-0.06 0.3-0.15 0.28-0.16-0.03 0.06-0.3 0.15-0.28zm42.23-20.56c0.05 0.22-0.19 0.21-0.23 0.11-0.05-0.22 0.19-0.21 0.23-0.11zm-10.7 5.16c0.16 0.03-0.06 0.3-0.15 0.28-0.16-0.03 0.06-0.3 0.15-0.28zm-2.79 1.34c0.16 0.03-0.06 0.3-0.15 0.28-0.16-0.03 0.06-0.3 0.15-0.28zm-5.34 2.58c0.05 0.22-0.19 0.21-0.23 0.11-0.05-0.22 0.19-0.21 0.23-0.11zm-27.43 13.21c0.16 0.03-0.06 0.3-0.15 0.28-0.16-0.03 0.06-0.3 0.15-0.28zm45.24-22.01c0.02 0.3-0.21 0.08-0.46 0.22-0.05-0.24 0.38-0.4 0.46-0.22zm-2.32 1.12c0.16 0.03-0.06 0.3-0.15 0.28-0.16-0.03 0.06-0.3 0.15-0.28zm-11.62 5.6c0.16 0.03-0.06 0.3-0.15 0.28-0.16-0.03 0.06-0.3 0.15-0.28zm-5.73 2.97c-0.64 0.47-1.7-0.57-0.42-0.86-0.28 0.54 0.18 0.44 0.42 0.86zm9.13-4.82c0.16 0.03-0.06 0.3-0.15 0.28-0.16-0.03 0.06-0.3 0.15-0.28zm-1.16 0.56c0 0.32-0.23 0.13-0.32-0.06 0-0.32 0.24-0.13 0.32 0.06zm-11.86 5.71c0.05 0.22-0.19 0.21-0.23 0.11-0.05-0.22 0.19-0.21 0.23-0.11zm-8.05 4.09c-0.44-0.04-1.11 0.35-1.26-0.24 0.44 0.04 1.11-0.35 1.26 0.24zm-7.29 3.3c0.16 0.03-0.06 0.3-0.15 0.28-0.16-0.03 0.06-0.3 0.15-0.28zm-2.01 1.18c-0.83 0.38 0.22-0.81-0.48-0.4-0.04-0.27 0.51-0.42 0.85-0.62 0.1 0.38-0.25 0.68-0.37 1.02zm-1.71 0.61c0.16 0.03-0.06 0.3-0.15 0.28-0.16-0.03 0.06-0.3 0.15-0.28zm32.69-15.96c0.16 0.03-0.06 0.3-0.15 0.28-0.16-0.03 0.06-0.3 0.15-0.28zm-5.11 2.46c0.16 0.03-0.06 0.3-0.15 0.28-0.16-0.03 0.06-0.3 0.15-0.28zm-6.74 3.25c0.29-0.8 1.92-0.33 0 0zm-11.39 5.49c0.07 0.17-0.22 0.27-0.38 0.4-0.08-0.17 0.22-0.27 0.38-0.4zm-9.07 4.37c0.16 0.03-0.06 0.3-0.15 0.28-0.16-0.03 0.06-0.3 0.15-0.28zm-1.16 0.56c-0.48 0.81 0.38-0.83 0 0zm-0.47 0.22c0.16 0.03-0.06 0.3-0.15 0.28-0.16-0.03 0.06-0.3 0.15-0.28zm17.59-8.68c0.16 0.03-0.06 0.3-0.15 0.28-0.16-0.03 0.06-0.3 0.15-0.28zm-18.6 8.96c0.43 0.05 0.05 0.06-0.23 0.11-0.23-0.41 0.14-0.43 0.23-0.11zm21.77-10.7c-0.58 0.79 0.28-0.85 0 0zm-2.32 1.12c0.05 0.24-0.38 0.4-0.47 0.22 0.16-0.21 0.31-0.41 0.47-0.22zm-4.89 2.35c-0.2 0.91-0.12-0.51 0.07-0.46 0.28 0.08-0.06 0.41-0.07 0.46zm-0.46 0.22c0.05 0.22-0.19 0.21-0.23 0.11-0.05-0.22 0.19-0.21 0.23-0.11zm7.12-3.64c0.06 0.49-1.13 0.66-1.09 0.1 0.65-0.58 0.45 0.47 1.09-0.1zm-5.43 2.4c0.21 0.28-0.05 0.46-0.15 0.28-0.99 0.15-0.8-0.22 0.15-0.28zm-13.86 6.89c0.07 0.17-0.22 0.27-0.38 0.4-0.08-0.17 0.22-0.27 0.38-0.4zm22-10.81c0.16 0.03-0.06 0.3-0.15 0.28-0.16-0.03 0.06-0.3 0.15-0.28zm-4.04 1.73c0.16 0.03-0.06 0.3-0.15 0.28-0.16-0.03 0.06-0.3 0.15-0.28zm-3.02 1.46c0.16 0.03-0.06 0.3-0.15 0.28-0.16-0.03 0.06-0.3 0.15-0.28z"/>
		<path class="s0" d="m406.77 135.43c-0.09 1.12-0.06 3.24 0.11 3.78q-0.12 0-0.22 0c0.39 4.42 0.43 9.93 0.53 16.27 0.07-0.01 0.05-0.36 0.06-0.58 0.14 4.06-0.05 12 0.42 17.44-0.11-0.35-0.12-0.11-0.22 0 0.23 2.9 0.31 5.61 0.5 9.87-0.13-0.78-0.41 0.08-0.42-1.73 0.14 0.03 0.08 0.96 0.25 0.86-0.1-4.09-0.38-4.76-0.3-7.85-0.1 0.09-0.04 0.73-0.04 1.17-0.23-2.3-0.2-6.6-0.36-10.17 0.02 6.63 0.34 13.61 0.4 19.48 0 0.78-0.06 2.29 0.18 3.78-0.07 0.69-0.22-0.96-0.2-1.74-0.21 2.17 0.23 2.84 0.3 5.23-0.16 0.05-0.06-1.03-0.12-1.45-0.24 3.25-0.11 10.74-0.1 14.84-0.08-0.07-0.07-0.58-0.17-0.58-0.22 0.2 0.09 0.62 0.03 1.16-0.34 0.63-0.29 2.65-0.24 4.66 0.04 1.27-0.13 0.05-0.09-0.58-0.15-0.66-0.04-2.44-0.3-2.61 0.09-0.94 0-1.58-0.07-2.62-0.16 0.41 0.03 2.02 0 2.91-0.23 0.27-0.13-0.95-0.26-1.16-0.1 2.1 0.11 4.51 0.34 6.68 0.07-0.01 0.05-0.36 0.06-0.58 0.1 1.1 0.17 5.98-0.19 6.4-0.43-4.04-0.5-10-0.82-15.97 0.1 4.13-0.5 9.64 0.06 12.8 0 0.85-0.16 1.18-0.25 1.75-0.2-0.92-0.4-1.49-0.31-2.9-0.14 0.12-0.03 1.13-0.27 0.88-0.13-0.28-0.21-0.8-0.2-1.74-0.12 1.95 0.05 4.91-0.11 6.69-0.25-0.08-0.32-0.96-0.42-1.73-0.08 0.59-0.21 1.02-0.25 1.75-0.42-4.04-0.82-8.34-0.82-13.36-0.24 2.36-0.08 6.74-0.12 9.02-0.19-1.38-0.24-6.09-0.08-5.52-0.03-0.85-0.2-1.08-0.34-1.45 0.13 2.31 0.09 3.28 0 5.24-0.31-1.53 0.08 1.87 0.02 3.2-0.14-0.75-0.21-1.82-0.15-2.61-0.03-0.37-0.16-0.29-0.15 0-0.12-2.51-0.49-6.47-0.72-9.58-0.16 1.74 0.19 5.64 0.12 6.98-0.17-1.75-0.26-3.86-0.32-6.1-0.2 1-0.17 3.14-0.02 4.65-0.09-0.04-0.08-0.53-0.1-0.87-0.09 0.05-0.05 0.53-0.05 0.87-0.21-1.16-0.13-3.58-0.22-5.23-0.06-0.29-0.18-0.29-0.17-0.87-0.22 0.2 0.09 0.62 0.03 1.16-0.16-0.08-0.17-0.77-0.26-1.16-0.25 1.32 0.17 2.2 0.12 4.36 0.07 0.63-0.02 1.85-0.06 0.58 0.15-2.84-0.46-3.13-0.2-1.74-0.05-0.28-0.1-0.97-0.21-2.32-0.16 0.57-0.1 1.93-0.06 3.2-0.43-2.22-0.04 1.6-0.06 3.2-0.09 0.89-0.1-1.26-0.12-1.74-0.04-0.68-0.15-1.09-0.13-2.03-0.22 0.45-0.06 2.23-0.05 3.49-0.52-2.68-0.17-5.55-0.4-9-0.1 0.87 0.07 5.57-0.1 1.75-0.02-0.68-0.15-0.85-0.12-1.74-0.11 2.35 0.19 6.51 0.08 8.14-0.12-0.36-0.17-1-0.2-1.74-0.26 0.27-0.02 0.86-0.03 1.75-0.24-0.14-0.25 0.53-0.51 0.31-0.3-1.28-0.23-4.23-0.33-6.39-0.04 0.8-0.14 1.43-0.16 2.33-0.2-1.08-0.24-2.85-0.41-4.06-0.11 1.27 0.04 2.21 0.08 2.91 0.12 2.17 0-0.03-0.28-2.03-0.07-0.57-0.25-0.66-0.33-1.15-0.16-2.03-0.15-4.8-0.34-6.68-0.55 2.27 0.18 8.43 0.06 12.8-0.51-4.04-1.03-6.72-1.09-12.19-0.35-0.43 0.09 1.9-0.26 1.46 0.1-7.05-0.36-17.02-0.56-22.38-0.09 0.05-0.05 0.53-0.05 0.87-0.08-1.16 0.06-3.8-0.1-6.11-0.12 0.8 0.1 5.33-0.03 4.36-0.19-2.1-0.12-5.34-0.42-6.97 0 6.4 0.32 12.97 0.51 20.63l0.06 2.03c0.08 1.05-0.1 1.06-0.07 0l-0.06-2.03c-0.33-4.61-0.33-12.98-0.71-20.05 0.15 8.08 0.35 17.09 0.6 26.45-0.17-0.21-0.08-1.63-0.14-2.32-0.13-1.17-0.24-3.8-0.14-4.94-0.21-0.16-0.22-0.42-0.28-2.03 0.23 1.14 0.06-0.14 0.21-0.59-0.17 0.2-0.11-0.82-0.26-1.45-0.02-0.68 0.21 0.1 0.17 0.58-0.11-5.78-0.24-13.7-0.34-20.06q-0.04-1.3-0.07-2.62c0.15-0.22 0.13 3.14 0.2 4.36 0.19-5.63-0.49-9.26-0.3-13.37-0.1 0.09-0.04 0.73-0.04 1.16-0.23-4.45-0.27-6.88-0.23-10.75-0.02-1.15-0.43-1.57-0.14-2.32 0.41 2.74 0.29 10.41 0.63 14.52-0.1-4.79-0.26-10.17-0.42-14.82-0.08-0.44-0.11 0.08-0.31-0.28-0.15-2.19 0.18-2.68 0.01-4.94-0.1 0.09-0.04 0.73-0.04 1.16-0.29-0.92 0.26-2.82-0.17-3.49-0.08-1.34-0.06-4.12-0.18-6.39-0.09-1.84-0.38-5.58-0.11-1.16 0.15-0.69-0.05-2.61-0.03-3.78 0.03-0.45 0.08-0.02 0.08 0.29 0.15 5.01 0.23 7.18 0.38 10.75 0-4.78-0.27-11.07-0.53-13.66-0.21-1.45-0.14-4.16-0.25-6.1 0.16 0.05 0.14 3.73 0.22 5.23 0.07-3.97-0.14-10.68-0.28-15.41 0.07 0 0.07 0.35 0.09 0.58 0.13-9.22-0.36-19.56-0.61-32.27-0.29 1.31-0.11-1.66 0.02-2.04 0.21 1.26 0.13 3.77 0.23 5.52 0.27-0.78-0.3-5.54 0.14-5.53q0.03 1.16 0.07 2.32c0.11-1.89-0.15-5.84-0.05-6.98 0.2 0.97 0.12 3.19 0.21 4.65 0.2-5.04 0-8.5-0.04-14.54 0.17 0.21 0.07 1.63 0.14 2.32 0.39-1.49-0.22-5.79 0.18-6.69-0.03 0.73-0.04 1.2 0.12 1.74 0 0.28-0.08 0.23-0.14 0.3 0 1.41 0.54 8.71 0.39 11.04 0-0.12-0.08-1.09-0.22-2.61 0.07-1.14 0-3.65-0.12-4.36-0.04 3.82 0.28 10.31 0.46 13.66 0.21-1.57-0.19-5.31 0.3-5.24-0.01-2.16-0.06-3.55-0.07-5.23 0.19 0.78 0.11 2.8 0.19 4.07 0.09-3.65-0.06-8.8-0.29-12.79 0.08-1.81 0.09 1.45 0.12 1.45 0.18 0.02-0.09-3.21-0.09-3.2-0.04-2.5 0-10.88-0.37-13.08 0.13 0.42 0.19 1.13 0.21 2.03 0.16-0.31-0.02-1.83 0-2.62 0.3 0.62 0.04 1.93 0.17 3.48 0.24-0.17 0.08-1.1 0.03-1.75 0.16-0.38 0.23 2.47 0.25 3.77-0.08 0.47-0.19-1.64-0.13-2.03-0.03 9.7 0.38 19.23 0.44 26.16 0.23-2.2 0.03-5.97-0.11-9.3 0.29 1.82 0.08-2.55 0.12-3.49 0.26 1.97 0 4.7 0.48 6.38-0.16-0.13-0.15 0.77-0.09 2.04 0.25-1.97 0.11-4.31 0.03-6.69 0.33 1.65 0.09 3.52 0.4 6.1-0.05-0.9 0.13-3.14-0.12-4.36 0.42-0.32 0.2 2.16 0.31 3.19 0.18-1.27 0.08-3.18-0.19-4.07 0.07-1.08 0.03 0.86 0.16 0.58 0.04-1.9-0.31-4.96-0.29-7.85 0.36 2.69 0.47 6.61 0.74 10.45 0.08-1.36 0-4.74-0.17-6.1-0.11 0.13 0.04 0.37 0.02 0.87-0.16-1.67 0.07-2.4-0.35-4.64 0.08 0.64 0.27 0.77 0.27 1.74-0.03-5.3-0.06-11.8-0.48-17.15 0.2 0.23 0.22 1.19 0.35 1.73 0.14-0.04-0.11-0.97-0.05-1.74 0.21 1.51 0.48 4.34 0.46 5.8q0.13 0.05 0.14-0.3c0.19 3.23 0 6.43 0.44 10.17-0.07 0-0.07-0.35-0.09-0.58-0.14 5.24 0.09 11.94 0.33 17.15 0.46-3.35-0.51-8.9-0.16-13.66 0.08 1.95 0.15 6.12 0.25 9.01 0.35-0.5-0.28-3.56 0.12-3.5-0.1-0.63-0.23-1.18-0.21-2.32 0.3 1.19 0.21-1.59-0.04-1.45 0.26-2.97-0.16-5.34-0.01-8.43-0.04-0.45-0.12 0.26-0.16-0.29 0.1-1.43 0.04-2.24 0.21-3.2 0.14 6.78 0.27 12.78 0.45 21.22 0.15-0.33-0.05-1.92 0.17-2.04-0.3-0.38 0.13-4.7-0.26-6.68 0.15 0.54 0.21-0.13 0.36-0.3q-0.12-0.44-0.25-0.87c0.34 0.18 0-3.37-0.11-4.07-0.06-0.91 0.18-0.77 0.18-1.46-0.02-0.34-0.14-0.24-0.23-0.28 0.08-0.95-0.16-3.48 0.13-3.2 0-0.59-0.33-1.83-0.31-2.9 0.25 0.24 0.16 0.24 0.29-0.3-0.65-0.45-0.16-6.62-0.72-9.87-0.22 0.45-0.09 2.12-0.13 3.2 0.1-0.09 0.04-0.73 0.04-1.16 0.23 1.39 0.34 3.27 0.38 5.52-0.24-0.7-0.22-1.34-0.24-3.19-0.27-0.27 0.06 1.69-0.27 0.88 0.25 1.05 0.04 2.38 0.32 3.48 0.1-0.09 0.04-0.73 0.04-1.16 0.25 0.09 0.16 1.67 0.22 2.61-0.09 0.81-0.35-0.6-0.28 0.59-0.29-1.67-0.23-3.27-0.37-5.23-0.16 0.13 0.01 1.43-0.02 2.04-0.31-1.52-0.21-4.75-0.44-5.22 0.04-0.22-0.36-2.95 0.07-2.91-0.02 1.3 0.15 1.74 0.16 2.91 0.1-1.03 0.14-0.9 0.17 0.58 0.51-2.54-0.37-4.18-0.41-6.68 0.12 0.34 0.15 1.43 0.23 0.29 0.16 0.75 0 0.98 0.2 1.74 0.22-1.75-0.14-5.11 0.26-1.46 0 0.73-0.25 0.98-0.02 1.75 0.07-0.6-0.01-0.25 0.13-0.58 0.28 1.27 0.3 3.86 0.44 4.93 0.26-0.09-0.03-0.78 0.12-0.88 0.22 0.14-0.04 1.21 0.21 2.32-0.13-0.07-0.18-0.5-0.18-1.16 0.07 2.24 0.05 4.7 0.27 6.97 0.1-0.06 0.11-1.21 0.15 0 0.21-0.25-0.07-0.93-0.04-1.45 0.15 0.11 0.09 1.12 0.32 0.86-0.05-1.86-0.38-1.92-0.28-4.64-0.27 0.79 0 3.05-0.12 3.78-0.2-3.61 0.03-8.62-0.56-11.91-0.1 1.55 0.37 3.73 0.21 4.94-0.16-1.4-0.6-5.31-0.22-5.23-0.11-1.43-0.07-3.91-0.07-2.62-0.03 0.78 0.17 0.56 0.25 0.86-0.14 1.23-0.05 2.09 0.1 3.49 0.1-0.85-0.23-2.01 0-2.91 0.25-0.46 0.07 0.98 0.25 0.86 0.07-0.21 0.07-1.49 0.32-1.75-0.34 1.71-0.24 3.87-0.29 5.53-0.09-0.04-0.08-0.53-0.1-0.87-0.2 1.55 0.42 2.28 0.35 4.35 0.16-0.13 0-1.43 0.02-2.04 0.28 1.1 0.12 3.42 0.37 5.23 0.19-1.24-0.19-2.85-0.02-3.49 0.17 0.24 0.1 1.5 0.27 1.74-0.17 0.19-0.11 0.18-0.03 1.46 0.24-0.63 0.28-1.02 0.37-2.63q-0.12-0.45-0.25-0.87c0.28-0.35-0.08-1.9-0.1-3.49 0.22-0.22 0.12 1 0.39 0.57 0.09 1.66 0.02 3.28 0.15 5.23q0.13 0.05 0.14-0.29c0.15 0.76-0.25 0.44-0.02 2.04 0.1-0.09 0.04-0.73 0.04-1.17 0.12 0.24 0.13 0.93 0.19 1.45 0.17-0.9-0.06-2.76-0.3-2.9-0.05-1.23 0.11 0 0.22 0-0.28-1.32-0.23-1.67-0.25-3.77 0.23 1.92 0.17 1.39 0.32 3.48 0.19-1.99-0.08-3.55-0.19-6.68 0.23 0.82 0.3 2.38 0.34 4.06 0.15-0.08-0.02-1.28 0.11-1.46 0.16 0.4-0.04 1 0.12 1.74q-0.11 0-0.22 0c0.44 5.69 0.69 9.59 1.08 14.51 0.02-1.61-0.19-5.17-0.09-5.81-0.34-2.53-0.68-5.16-0.64-6.96 0.11 0.26 0.28 2.5 0.24 0.57 0.2 0.8-0.04 2.31 0.11 3.78 0.22-3.14-0.29-5.57-0.3-7.85-0.12 1.5 0.09 2.71-0.05 3.49-0.19-1.5-0.1-2.7-0.04-4.07-0.21-0.49-0.34-1.32-0.44-2.31-0.02-0.68 0.21 0.1 0.17 0.58 0.04-0.87 0.07-3.06-0.19-4.07 0.19 0.85 0.29-1.9-0.04-1.45 0.7 0.34 0.52 5.48 0.97 8.12 0.16 0.04 0-1.03 0.03-1.46 0.12-0.64 0.11 2.12 0.16 2.91-0.1-0.09-0.08-0.73-0.11-1.16-0.03 2.15 0.19 4.07 0.33 6.39 0.26-0.86 0.26 3.45 0.65 4.63 0.05 0.17-0.06 2.27 0 2.62 0.04 0.43 0.09-0.12 0.22 0 0 1.32-0.12 1.68 0.03 3.78 0.08-0.33 0.15-0.26 0.16 0.29 0.19-0.14 0.09-1.26 0.26-1.46 0 1.34 0.15 4.72-0.03 6.69 0.31 0.72 0.19 4 0.34 6.68-0.02-1.05 0.28-2.84-0.02-3.2 0.54-0.03-0.07-3.99 0.34-3.79-0.34-4.89-0.38-9.37-0.64-12.2q-0.24-0.08-0.2 0.88c-0.38-1.9-0.22-5.29-0.43-7.26 0.23 0.46 0.05 0.92 0.19 1.45 0.17-0.86-0.03-2.92-0.31-2.9-0.05-1.21-0.09-2.42 0.07-2.91-0.53-1.06-0.26-3.62-0.73-4.92 0.38-0.05-0.01-0.48-0.12-1.74-0.07 0.01-0.05 0.36-0.06 0.58-0.28-0.18 0.02-1.32-0.27-1.74 0.06-0.33 0.18 0.06 0.2-0.88-0.04-0.43-0.09 0.12-0.22 0-0.04-0.76 0.28-0.24 0.19-1.17 0.15-0.26 0.19 1.48 0.24 0.57 0 0.5 0.38 2.37 0.09 3.2 0.27 0.78 0.22-2.36 0.06-3.2 0.29 0.76 0.03-2.22 0.14-2.91 0.07 0.16 0.14 0.8 0.16 0.29 0.15 1.69 0.16 3.23 0.3 5.52 0.27-1.55 0.11 2.51 0.46 3.19-0.37-0.54-0.3-3.02-0.69-3.47-0.35 0.58 0.05 1.57-0.24 2.04-0.01 0.92 0.25 0.65 0.2 1.74 0.06-0.18 0.26-0.68 0.23 0.29 0.17-0.25-0.05-1.5-0.12-1.74 0.36-1.15 0.42 3.58 0.61 3.18 0.07 3.32 0.67 5 0.71 9.29 0.23-0.03 0.31 0.82 0.36 2.32-0.08-0.21-0.13-0.53-0.17-0.87-0.21 0.05-0.1 1.22-0.09 2.04 0.16-0.04 0-1.23 0.03-1.75 0.14 0.58 0.3 1.07 0.35 2.03q-0.13-0.05-0.14 0.3c0.58 5.94 0.23 9.33 0.88 15.39 0.31-0.48-0.1-2.03-0.02-3.49 0.27 2.08 0.24 3.69 0.17 6.1q-0.18-0.37-0.19-1.45c-0.16 0.04 0 1.23-0.03 1.75 0.1 0.3 0.21 0.27 0.31 0.57 0.08 0.97-0.14 0.47-0.21 0.3 0.36 2.42 0.56 7.01 0.62 11.62 0.2-3.19-0.04-6.28 0.04-9.02-0.2 1.35-0.38-3.27-0.27-4.35 0.17 0.12 0.07 1.43 0.13 2.03-0.1-8.49-0.5-14.69-1.09-22.95 0.06 0.05 0.08 0.29 0.16 0.29-0.12-2.06-0.34-3.18-0.3-5.23-0.04-0.43-0.09 0.12-0.22 0-0.14-2.39 0.06-5.42-0.3-7.85 0-0.21 0.25 4.32 0.04 1.45-0.43-0.93-0.37-4.04-0.61-5.8 0.37 0.97 0.65 3.14 1.03 4.92-0.2 2.8 0.51 6.2 0.39 8.42-0.23 4.07 0.7 8.68 0.69 13.94 0.25-0.26-0.05-1.17 0.09-2.04 0.4 4.41 0.49 9.9 0.52 13.07 0.14-5.16-0.12-12.4-0.36-18.02-0.18 1.17-0.05 2.22-0.03 4.36-0.38-1.58-0.15-4.24-0.23-5.52 0.09 0.04 0.08 0.53 0.1 0.87 0.15-0.6-0.04-2.42-0.02-3.49 0.75 12.36 1.21 25.21 1.72 37.18-0.03 0.51 0.14 1.7-0.03 1.75q-0.03-1.02-0.06-2.03c-0.18-4.98-0.53-9.19-0.7-14.23-0.2 0.71 0 2.76-0.2 3.49 0.05 0.45 0.08 0.02 0.07-0.29 0.27 8.86 0.57 18.2 0.92 27.31 0.22 5.93 0.2 9.98 0.48 17.15 0.15-2.68-0.17-5.6 0.01-7.56 0.35 6.37 0.28 12.77 0.54 19.18 0.1-0.43 0.12-1.14 0.09-2.04 0.23 2.85 0.39 6.81 0.2 9.59 0.28-1.77 0.3 5 0.19 1.45 0.16 3.45 0.28 6.97 0.47 11.33-0.26-0.39-0.12-3.33-0.35-4.64zm1.9 46.48c0.18 0.49 0.09 2.22 0.17 3.2-0.2-0.7-0.21-1.89-0.17-3.2zm-3.06-103.46c-0.14-1.35-0.25-3.79-0.21-4.94 0.2 1.56 0.22 3.16 0.21 4.94zm3.02 110.15c0.23 0.57 0.03 1.82 0.07 2.62-0.24-0.6 0.06-1.53-0.07-2.62zm-2.66-97.36c0.2 3.48 0.48 11.18 0.48 17.15-0.09-0.05-0.08-0.53-0.1-0.87q-0.01-0.44-0.02-0.87c-0.17-2.82-0.04-4.82-0.34-6.68 0.44-1.03-0.56-3.99-0.48-6.39 0.31 0.03 0.11 2.32 0.3 2.9 0.26-1.01 0.05-2.88 0.03-4.36 0.18 0.62 0.16-0.08 0.12-0.88zm-0.78-11.61c0.14 0.5 0.21 2.98 0.1 3.49 0.02-1.56-0.2-2.48-0.1-3.49zm2.73 107.54c0.1-1.01-0.11-1.92-0.1-3.49 0.14 0.38 0.4 3.25 0.1 3.49zm0.17 3.19c0.1 0.38 0.29 3.26 0.02 3.2 0-1.26-0.11-1.49-0.02-3.2zm-3.08-106.65c-0.13 0.57-0.08-2.46-0.23-2.9 0.14-1.27-0.08-3.78-0.08-5.52 0.21 1.16 0.13 3.58 0.22 5.23 0 0.5 0.15 0.75 0.02 0.87q0.03 1.17 0.07 2.32zm-2.43-41.24c-0.26 0.28-0.14-1.14-0.2-1.74 0.19 0.03 0.18 0.97 0.2 1.74zm4.2 167.42c-0.2-0.99-0.11-1.75-0.22-2.61 0.3 0.34 0.22 1.64 0.22 2.61zm-1.27 7.89c0.27 0.51 0.11 1.97-0.17 2.04 0.05-0.93-0.02-1.27 0.17-2.04zm-7.23-190.6c-0.16-0.29-0.16-2.64-0.19-4.07 0.26 1.45 0.24 1.93 0.19 4.07zm-0.93-4.05c-0.17-0.12-0.07-1.43-0.13-2.03 0.13 0.4 0.25 1.5 0.13 2.03zm0.06 4.66c-0.17-0.24-0.11-1.5-0.27-1.74 0.17-0.81 0.41 1.02 0.27 1.74zm-0.83-5.51c0.18-0.12 0.18 0.52 0.38 0.28 0 0.41 0.01 0.82 0.1 0.87-0.01 0.4-0.18 0.25-0.29 0.3 0.03-0.89-0.22-0.55-0.19-1.45zm-1.56 21.28c0.1 0.22 0.27 2.84 0 2.62 0.1-1.04-0.07-1.47 0-2.62zm-0.46 2.05c0.1 0.07 0.09 0.58 0.02 0.58q-0.07 0-0.15 0-0.04-1.46-0.08-2.91c0.2 0.75 0.15 1.87 0.15 2.61 0.06 0.05 0.07-0.12 0.07-0.29zm-1.69-12.46c-0.16-0.49-0.2-1.5-0.22-2.61 0.13 0.63 0.17 1.63 0.22 2.61zm-0.83 4.97c0.14-0.39 0.12 2.74 0.18 3.78 0 2.5-0.23-2.59-0.18-3.78zm0.38 10.75c-0.33-3.62-0.03-4.24 0 0zm-0.35 6.12c-0.18-0.3-0.08-1.83-0.15-2.61 0.06-0.5 0.24 2.39 0.15 2.61zm-0.08 7.85c0.1-0.43 0.02-1.49 0-2.33 0.04-0.93 0.29 2.76 0 2.33zm0.38 34.6c-0.19-0.49-0.09-2.22-0.17-3.19 0.22 1.06 0.16 1.71 0.17 3.19zm-0.07 0.29c0.18 0.4 0.08 2.02 0.16 2.9-0.18-0.4-0.09-2.02-0.16-2.9zm-1.05-26.72c0.08-3.62-0.19-7.04-0.23-10.75 0.02 0.29 0.35 0.78 0.17 0.87-0.11 2.9 0.34 6.59 0.06 9.88zm0.25 11.33c0.11-0.49 0.01-1.71 0-2.62 0.18 0.53 0.29 2.44 0 2.62zm-1.11-44.76c-0.15-0.85-0.22-2.09-0.25-3.48 0.14 0.9 0.21 2.14 0.25 3.48zm1.32 47.08c0.12 0.72-0.13 1.41 0.04 1.45-0.1 1.34-0.35-1.94-0.04-1.45zm0.97 36.91c-0.3-1.25-0.34-7.75-0.07-2.62 0.03 0.6 0.04 1.64 0.07 2.62zm1.06 45.64c-0.24-1.57-0.3-7.08-0.25-8.72 0.02 2.46 0.34 5.61 0.25 8.72zm-3.59-124.97c-0.14-0.6-0.2-1.53-0.22-2.61 0.13 0.6 0.2 1.52 0.22 2.61zm19 151.58c0.1 0.54 0 2.63-0.13 3.2-0.12-0.61 0.17-2.02 0.13-3.2zm-2.19-77.88c-0.08 0.25-0.21-2.11-0.24-3.19 0.14 0.82 0.19 2 0.24 3.19zm-0.95-12.48c-0.28-1.34-0.34-4.13-0.42-6.97 0.32 1.54 0.34 4.36 0.42 6.97zm-0.99-43.31c0.31 0.31 0.14 2.02 0.16 2.91-0.18-1.03 0.03-1.72-0.16-2.91zm0.55 19.47c0.07 0.2 0.1 1.16 0.14 2.32-0.19-0.6-0.35-1.68-0.14-2.32zm2.22 84.28c0.02 0.25-0.02 0.27-0.07 0.29-0.29 0.08-0.2-1.93-0.22-2.61-0.24-6.54-0.11-14.73-0.45-21.22 0.51 8.83 0.45 15.33 0.74 23.54zm-0.76-45.64c0.04 3.64 0.24 0.45-0.02-0.87-0.02 0.42-0.08 0.49 0.02 0.87zm-10.55-49.44c0.36-0.41-0.13-3.77 0.09-4.66-0.42 0.9 0.04 2.59-0.09 4.66zm1.78-29.42c-0.21-1.21 0.13-2.48-0.19-4.07-0.05 0.43-0.09 0.92-0.27 0.88 0.26 1.08 0.21 3.25 0.46 3.19zm3.45 1.06q-0.35-2.47-0.5-4.64c0 0.34 0.04 0.82-0.05 0.87 0-0.18-0.02-0.34-0.08-0.29 0.09 0.92-0.03 1.1-0.11 1.46 0.16 0.18 0.06 1.47 0.33 1.15 0-0.44-0.06-1.07 0.04-1.16-0.04 0.96 0.24 1.81-0.04 1.16 0.21 1.31 0.13 0.52 0.04 1.45 0.15 0.19 0.35 0.99 0.37 0zm4.89 107.77c-0.07-0.88 0.02-2.51-0.16-2.9 0.07 0.88-0.02 2.51 0.16 2.9zm-2.55-72.35c0.17 2.65-0.1 4.63 0.24 5.81-0.09-1.68-0.07-5.57-0.24-5.81zm-2.45-52.57c-0.26 0.67 0.31 2.51 0.26 1.16-0.28 0.47-0.06-1.25-0.26-1.16zm0.51 20.92c-0.22-2.08 0.14 1.58-0.17 2.04-0.02-0.22-0.02-0.57-0.09-0.58 0.02 1.01 0.18 1.37 0.28 2.03 0.14-1.35 0.08-2.5-0.02-3.49zm0.22 7.56c-0.03-0.51 0.17-1.45-0.05-1.74-0.12 0.49-0.17 1.31 0.05 1.74zm-1.3-19.74c0.04 1.44 0.03 3.13 0.32 3.48-0.15-0.97-0.09-2.86-0.32-3.48zm-0.17-0.58c0.1 0.09 0.15 0.41 0.31 0.28 0-0.77-0.18-2.44-0.34-1.45 0.07 0.08 0.23 1.28 0.11 1.16 0-0.16-0.07-0.33-0.07 0zm-2.14 5.88c0.06 1.04 0.04 4.17 0.18 3.78 0.03-0.7-0.15-2.11 0-2.33 0.04 0.62 0.03 3.1 0.14 2.32-0.05-1.51-0.02-3.4-0.33-3.77zm-0.16 18.03c0.11-0.51 0.04-2.99-0.1-3.49-0.06 0.87 0.1 1.97 0.1 3.49zm-0.64-1.43c0.24-0.15 0.23-2.51 0.06-3.2 0 1.13 0 2.3-0.06 3.2zm-0.73-20.63c0.08 1.28 0.11 2.78 0.25 3.77 0.02-0.59 0-3.33-0.25-3.77zm0.19 11.92c0.05 0.55-0.05 1.75 0.19 1.45q-0.02-0.73-0.04-1.45-0.07 0-0.15 0zm0.32 8.71c0.1 2.58 0.21 0.32-0.06-2.03-0.08-0.69 0.02 0.98 0.06 2.03zm3.77 147.36c0.08 0.86 0.14 1.77 0.36 2.03-0.14-0.6-0.12-1.86-0.36-2.03zm-4.38-158.39c-0.18 0.62-0.03 1.13-0.1 1.75 0.57 0.42-0.08-3.41 0.1-1.75zm0.24 3.19c-0.08-0.89-0.07-0.56-0.04-1.45-0.28-0.39-0.3 1.97 0.04 1.45zm-0.1-3.49c0.02-4.04-0.34-1.19 0 0zm0.15 7.85c0.16 1.54 0.06-2.7-0.11-4.07-0.12 1.67 0.06 3.5 0.11 4.07zm-1.85 8.49c0.06 2.56 0.1 5.2 0.25 8.72 0.07 1.61 0.47 5.34 0.35 6.97-0.1 1.23-0.16-0.91 0.02 0.58 0.13 1.13-0.05 2.61 0.1 3.49 0.4-0.86-0.21-4.84 0.24-4.66-0.69-9.93-0.26-20.27-1.02-33.42 0.03 3.8 0.31 8 0.18 11.63-0.07-3.99-0.23-4-0.09-0.58 0.14 1.06-0.02 1.99 0.23 2.9-0.31 1.23 0.23 7.52 0.08 10.76-0.19-1.95 0.06-4.28-0.34-6.39zm-0.44-23.55c0.08 1.26 0 3.29 0.19 4.07 0.05-1.24-0.06-3.92-0.19-4.07zm-0.64 24.74c0.09 1.23-0.04 3.45 0.25 3.77-0.08-0.82 0.08-0.76 0.03-1.46-0.3 0.35 0.09-2.3-0.29-2.32zm10.93 26.16c-0.11-5 0-1.4 0.19 1.45-0.15 0.6 0.04 2.42 0.02 3.49-0.11 1.35-0.3-3.66-0.21-4.94zm-1.97-51.42c-0.19 0.41-0.1 2.35-0.03 4.07-0.3-0.98-0.2-5.51-0.49-6.97 0.35 0.33 0.27 1.89 0.53 2.89zm-0.3-2.9c-0.26-0.75-0.13-2.11-0.27-4.35-0.07-1.43 0.28 2.86 0.27 4.35zm-0.34 11.64q0.03 1.17 0.07 2.32c-0.29-0.58-0.02-2.13-0.29-2.32 0.02-0.43 0.1 0.11 0.22 0zm-1.9-22.34c-0.08-0.61-0.25-0.85-0.27-1.74 0.31-0.06 0.35 1.09 0.5 1.73-0.09 0.65-0.19-0.36-0.21 0.3-0.09-0.05-0.05-0.29 0-0.29zm0.19 22.68c0.04-0.85 0.04-0.9-0.05-1.74 0.32 1.05 0.46 1.83 0.26 4.06-0.19-0.53 0.22-2.03-0.21-2.32zm4.38 174.1c-0.14-0.26-0.15-1.07-0.33-1.16 0.2-0.58 0.42-0.94 0.33 1.16zm-6.33-198.48c0.22 0.32-0.11 0.32-0.08-0.29-0.05 0.36-0.36 1.15-0.18 1.46-0.17 0.19-0.49-1.75-0.54-3.18 0.18 0.64 0.35 1.3 0.44 2.31 0.06-0.06 0.07-0.29 0.14-0.29-0.04-0.26-0.08-0.52-0.16-0.58 0.04-0.67 0.35 0.14 0.39 0.57zm-0.88 3.23c-0.22 0.07-0.29-1.03-0.19-1.45-0.14 0.13-0.11 0.83-0.36 0.59 0.23 0.23-0.02 1.57 0 2.62-0.21-0.07 0.17-2.42-0.21-2.32 0.05-0.51 0.13-1.12 0.28-0.59 0.04-0.93-0.14-0.9-0.19-1.45-0.31-1.38 0.19 0.77 0.24 0.57 0.18-0.68-0.2-4.24 0.07 0 0.1-0.09 0.04-0.73 0.04-1.16 0.13 0.94 0.34 1.54 0.44 2.6-0.06 0.13-0.13 0.26-0.13 0.59zm-0.01 4.94c0 0.33-0.07 0.16-0.07 0-0.09 0.05-0.05 0.53-0.05 0.87q-0.18 0-0.37 0.01c-0.01-0.5-0.08-0.75-0.17-0.87 0-0.33 0.07-0.16 0.07 0 0.07-0.29 0.09-1.29-0.11-1.16 0.23-0.59 0-0.46-0.04-1.45 0.13 0.46 0.34-0.15 0.35-0.88 0.22 0.18 0.21 1.87-0.04 1.17q0.02 0.59 0.03 1.16c0.06-0.13 0.13-0.26 0.13-0.59 0.26 0.66-0.12 1.3 0 2.33 0.1-0.25 0.08-0.94 0.11-1.46 0.11 0.06 0.05 0.87 0.17 0.87zm-0.73 0.32c0.22 1.41-0.01 3.3 0.05 4.36-0.15-0.85-0.09-2.67-0.58-2.02 0.03-0.27 0.19-0.44 0.06-0.58 0-0.51 0.29 0.43 0.39 0.57 0.23-0.55-0.05-1.33 0.08-2.33zm-1.38-1.42c-0.17-0.33-0.06-1.92-0.28-2.03 0.12-0.53 0.43 1.2 0.28 2.03zm-2.17 2.39c0.42 1.07 0.59 6.1 0.92 8.7-0.42-1.41-0.47-4.46-0.71-6.67-0.22 0.75 0.24 2.37 0.02 3.2-0.48 0.32-0.39-5.85-0.27-1.74q0.1 0.39 0.11 1.16c0.17-0.92-0.03-4.03-0.07-4.65zm0.86 9.28c0.12 0.1-0.05 0.51 0.09 0.58q0.06 2.03 0.11 4.07c-0.19-0.68-0.1-2.61-0.18-3.78-0.1-0.38-0.04-0.46-0.02-0.87zm-0.45-0.28c0.06 0.6 0.07 2.47 0.06 4.65-0.12-0.8-0.38-4.63-0.17-6.1 0.15 0.3-0.15 1.19 0 2.33 0.06-0.21 0.1-0.53 0.11-0.88zm-1.37-6.36c0.17-1.15 0.25 1.84 0.13 2.03-0.16-0.14 0.01-1.62-0.13-2.03zm-1.59 41.35c0 0.28 0.36 3.04 0.2 4.65-0.32-0.63-0.21-3.49-0.2-4.65zm2.49 99.11c0.1-0.09 0.04-0.73 0.04-1.16 0.21 0.84 0.01 2.98 0.15 5.23-0.4-1.31-0.02-2.41-0.26-4.07 0-0.33 0.07-0.16 0.07 0zm12.07-84.11c0.12-0.05 0.17 1.79 0.05 1.74-0.26-1.07-0.42-2.68-0.26-3.77 0.09 0.58 0.07 1.33 0.15 2.61 0.07-0.01 0.05-0.36 0.06-0.58z"/>
	</g>
	<g>
		<path class="s1" d="m116.93 312.29q-0.59 0-0.59-0.59v-43.67q0-0.59 0.59-0.59h10.95c10.29 0 13.26 3.76 13.26 8.84v4.62c0 3.76-1.65 6.66-6.53 7.98 5.87 0.99 8.18 3.96 8.18 8.18v6.33c0 5.08-2.97 8.91-13.26 8.91h-12.6zm1.65-42.95v18.74h10.16c7.72 0 10.23-3.1 10.23-7.19v-4.42c0-4.16-2.57-7.12-11.08-7.12h-9.3zm0 20.65v20.38h10.95c8.51 0 11.08-3.03 11.08-7.26v-6c0-4.09-2.57-7.12-11.08-7.12z"/>
		<path class="s1" d="m178.87 273.17q0 0.59-0.59 0.59h-1.06c-0.4 0-0.53-0.2-0.53-0.59v-6.4c0-0.4 0.13-0.59 0.53-0.59h1.06q0.59 0 0.59 0.59zm0 38.52q0 0.59-0.59 0.59h-1.06c-0.4 0-0.53-0.2-0.53-0.59v-31.2c0-0.4 0.13-0.59 0.53-0.59h1.06q0.59 0 0.59 0.59z"/>
		<path class="s1" d="m232.11 286.1c0-2.9-2.64-5.01-8.77-5.01-6.13 0-8.64 2.11-8.64 5.01v2.44c0 2.51 2.37 4.02 4.09 4.55l10.49 3.17c2.84 0.86 5.41 2.77 5.41 5.81v3.96c0 3.83-3.43 6.79-11.28 6.79-7.85 0-11.21-2.97-11.21-6.79v-1.91c0-0.33 0.2-0.53 0.59-0.53h0.99c0.33 0 0.53 0.2 0.53 0.53v1.85c0 2.97 2.77 5.08 9.1 5.08 6.33 0 9.17-2.11 9.17-5.08v-3.43c0-2.44-2.11-3.76-4.35-4.42l-10.49-3.17c-2.18-0.66-5.15-2.77-5.15-6.07v-2.77c0-3.76 3.03-6.73 10.75-6.73 7.72 0 10.82 2.97 10.82 6.73v2.31c0 0.33-0.13 0.46-0.59 0.46h-0.99c-0.33 0-0.46-0.13-0.46-0.46v-2.31z"/>
		<path class="s1" d="m279.01 279.96q0.6 0 0.59 0.59v0.73q0 0.6-0.59 0.59h-8.25v22.5c0 3.5 1.91 6 9.04 6h0.92c0.4 0 0.59 0.13 0.59 0.59v0.73q0 0.59-0.59 0.59h-1.12c-8.71 0-11.02-3.1-11.02-7.72v-22.69h-4.42q-0.6 0-0.59-0.59v-0.59q0-0.59 0.59-0.59l3.63-0.13h0.79v-7.32c0-0.4 0.13-0.59 0.53-0.59h1.06q0.59 0 0.59 0.59v7.32c0 0 8.25 0 8.25-0.01z"/>
		<path class="s1" d="m327.1 279.96v0.92q0 0.59-0.59 0.59c-5.01 0-9.83 3.36-11.48 4.75v25.46q0 0.59-0.59 0.59h-1.06c-0.4 0-0.53-0.2-0.53-0.59v-31.2c0-0.4 0.13-0.59 0.53-0.59h0.92c0.4 0 0.53 0.2 0.53 0.59l0.2 3.76c1.98-1.65 6.46-4.88 11.48-4.88q0.59 0 0.59 0.59z"/>
		<path class="s1" d="m356.85 287.09c0-4.55 2.7-7.72 11.35-7.72 8.65 0 11.41 3.17 11.41 7.72v18.01c0 4.49-2.7 7.72-11.41 7.72-8.71 0-11.35-3.23-11.35-7.72zm20.58 0.13c0-3.43-2.11-6-9.24-6-7.13 0-9.17 2.57-9.17 6v17.75c0 3.43 2.11 5.94 9.17 5.94 7.06 0 9.24-2.51 9.24-5.94zm-8.38-13c-0.13 0.13-0.26 0.33-0.66 0.33h-1.06c-0.33 0-0.46-0.2-0.26-0.53l5.15-7.98c0.2-0.26 0.4-0.46 0.73-0.46h1.25c0.46 0 0.53 0.26 0.33 0.59z"/>
	</g>
	<path class="s1" d="m480.69 165.16c-6.56 0-12.1 4.25-13.5 10.34-5.36 3.42-9.54 6.59-12.78 9.69-4.8 1.8-9.18 2.84-12.02 2.84-4.05 0-5.74-2.11-8.16-5.56-2.24-3.17-5.3-7.51-11.57-7.51-5.79 0-12.53 3.48-19.51 10.07 1.89-4.53 3.34-8.32 4.43-11.59 0.25-0.74 0.18-1.53-0.17-2.22-0.36-0.69-0.99-1.22-1.74-1.45-2.52-0.76-5.17 0.57-6.04 3.04-4.61 13.08-14.41 33.71-19.58 43.54-0.49 0.93-0.57 1.98-0.24 2.97 0.33 0.99 1.03 1.78 1.97 2.23q0.78 0.37 1.64 0.37c1.42 0 2.72-0.79 3.37-2.07 0.95-1.86 1.91-3.76 2.84-5.63 4.94-8.81 11.07-16.91 17.25-22.8 6.07-5.78 11.67-8.96 15.77-8.96 2.09 0 3.14 1.32 5.29 4.31l0.11 0.15c2.63 3.63 6.23 8.61 14.33 8.61 1.41 0 3.08-0.19 4.95-0.55-0.64 1.67-0.95 3.28-0.95 4.93 0 2.73 0.98 5.33 2.82 7.52 2.1 2.57 4.91 3.87 8.35 3.87 3.93 0 8.34-1.75 13.12-5.21l0.35-0.24c3.64-2.62 6.84-5.57 9.51-8.78 2.8-3.36 5.43-7.02 7.63-10.16 2.38-3.4 3.81-7.73 3.81-11.59 0-5.99-4.64-10.18-11.29-10.18zm-12.16 30.2c-2.61 1.78-5.57 3.64-7.74 3.92l-0.13 0.03q0-0.01 0-0.04c0-0.05 0-0.17 0.02-0.21l0.05-0.1 0.04-0.13c0.93-3.62 6.83-9.45 16.19-16 0.7 0.98 1.54 1.95 2.28 2.78-3.1 3.52-6.75 6.88-10.28 9.46z"/>
	<path class="s1" d="m460.34 76.59l0.32-0.15c0 0-8.9-6.35-8.93-6.37l-88.54 44.05c-0.01-0.62-2.06-104.12-2.07-104.65-0.03 0.02-13.37 10.9-13.4 10.92l4.95 98.96c-0.28 0.14-82.45 41.02-82.7 41.15l-7.2 10.65 90.32-43.23 2.57 51.3c-24.79 19.68-94.7 59.55-47.86-1.49 1.41-3.9-3.57-7.81-6.51-4.34-5.07 4.31-22.54 18.12-37.78 18.12-3.84 0.51-1.26-3.41 0.46-5.23 4.81-5.06 15.23-6.34 20.54-2.1l4.37-6.29c-7.62-5.86-22.39-4.79-29.71 2.37-22.68 16.63-51.41 30.51-64.62 30.37-9.69-1.15 1.99-20.96 5.66-24.87 2.11-2.06 3.86-6.11 1.06-8.49-1.52-1.54-3.95-0.79-5.15 0.48-9.59 7.1-24.49 19.57-37.13 22.64-4.67-1.12 4.78-11.48 7.28-13.78 4.08-2.91 6.57-9.6-0.84-9.27-12.92 9.63-29.93 18.05-46.73 23.22-20.41 7.42-41.79 15.69-64.98 15.76-67.95-4.81-23.35-98.8 11.6-128.35 19.35-22.23 99.72-61.54 107.49-28.43-1.86 35.12-46.39 52.57-74.26 47.65l-1.73 7.3c22.42 6.53 61.39-10.09 75.01-29.82 15.01-20.06 11.61-45.83-18.09-44.78-69.97 3-141.99 72.24-142.45 143.48 5.59 72.31 99.02 30.06 140.48 9.95-5.2 10.97 1.65 15.46 10.21 14.18 5.79-1.36 15.01-7.72 20.32-10.44 0.87-0.46 1.83-1.07 2.36-0.25-8.7 32.38 24.49 20.1 41.13 11.99 6.73-3.07 22.33-9.67 28.47-14.88 6.76 11.58 24.22 0.94 35.19-3.56-6.76 11.34-9.1 26.72 6.01 27.63 17.93-0.82 43.49-17.21 60.68-29.58 0.01 0.24 2.75 54.87 2.76 55.08h6.88l-2.39-120.5 96.98-46.41z"/>
</svg>